<?xml version="1.0" encoding="UTF-8" standalone="no"?>

<svg
  xmlns="http://www.w3.org/2000/svg"
  version="1.1"
  width="6100"
  height="2000"
  viewBox="0 0 6100 2000">
  <g transform="translate(0,-1806.5)">
    <g transform="translate(-364.4517,954.84831)">
      <g fill="#37474F" transform="translate(-5322.6483,387.10169)">
        <path d="m 8044.8,1042.2 185.8,0 c 108.5,0 174.1,64.3 174.1,157.2 l 0,1.3 c 0,105.2 -81.9,159.8 -183.8,159.8 l -76,0 0,136.5 -100,0 0,-454.8 z m 179.3,229.3 c 50,0 79.3,-29.9 79.3,-68.9 l 0,-1.3 c 0,-44.8 -31.2,-68.9 -81.2,-68.9 l -77.3,0 0,139 79.2,0 z" />
        <path d="m 8487.6,1042.2 207.9,0 c 57.8,0 102.6,16.2 132.5,46.1 25.3,25.3 39,61.1 39,103.9 l 0,1.3 c 0,73.4 -39.6,119.5 -97.4,141 l 111.1,162.4 -116.9,0 -97.4,-145.5 -1.3,0 -77.3,0 0,145.6 -100,0 0,-454.8 z m 201.4,220.9 c 48.7,0 76.7,-26 76.7,-64.3 l 0,-1.3 c 0,-42.9 -29.9,-65 -78.6,-65 l -99.4,0 0,130.6 101.3,0 z" />
        <path d="m 8949.7,1270.9 0,-1.3 c 0,-129.3 102,-235.2 242.3,-235.2 140.3,0 241,104.6 241,233.9 l 0,1.3 c 0,129.3 -102,235.2 -242.3,235.2 -140.3,-0.1 -241,-104.6 -241,-233.9 z m 378.8,0 0,-1.3 c 0,-78 -57.2,-142.9 -137.7,-142.9 -80.6,0 -136.4,63.7 -136.4,141.6 l 0,1.3 c 0,78 57.2,142.9 137.7,142.9 80.5,0 136.4,-63.7 136.4,-141.6 z" />
        <path d="m 9466.5,1435.2 63,-70.2 c 26,28.6 51.3,45.5 83.2,45.5 37.7,0 61.1,-22.7 61.1,-75.4 l 0,-293 102.6,0 0,297.5 c 0,53.9 -15.6,94.2 -42.9,121.5 -27.9,27.9 -68.9,42.2 -118.2,42.2 -70.8,0.1 -117.6,-31 -148.8,-68.1 z" />
        <path d="m 9875.8,1042.2 344.2,0 0,89 -244.8,0 0,92.2 228.1,0 0,89 -228.1,0 0,95.5 244.8,0 0,89 -344.2,0 0,-454.7 z" />
        <path d="m 10441.5,1134.5 -138.4,0 0,-92.2 376.8,0 0,92.2 -138.4,0 0,362.5 -100,0 0,-362.5 z" />
        <path d="m 10728.9,1270.9 0,-1.3 c 0,-129.3 102,-235.2 242.3,-235.2 140.3,0 241,104.6 241,233.9 l 0,1.3 c 0,129.3 -102,235.2 -242.3,235.2 -140.3,-0.1 -241,-104.6 -241,-233.9 z m 378.7,0 0,-1.3 c 0,-78 -57.2,-142.9 -137.7,-142.9 -80.6,0 -136.4,63.7 -136.4,141.6 l 0,1.3 c 0,78 57.2,142.9 137.7,142.9 80.6,0 136.4,-63.7 136.4,-141.6 z" />
        <path d="m 11277.6,1430.7 59.1,-70.8 c 40.9,33.8 83.8,55.2 135.8,55.2 40.9,0 65.6,-16.2 65.6,-42.9 l 0,-1.3 c 0,-25.3 -15.6,-38.3 -91.6,-57.8 -91.6,-23.4 -150.7,-48.7 -150.7,-139 l 0,-1.3 c 0,-82.5 66.3,-137.1 159.2,-137.1 66.3,0 122.8,20.8 168.9,57.8 l -52,75.4 c -40.3,-27.9 -79.9,-44.8 -118.2,-44.8 -38.3,0 -58.5,17.5 -58.5,39.6 l 0,1.3 c 0,29.9 19.5,39.6 98.1,59.8 92.2,24 144.2,57.2 144.2,136.4 l 0,1.3 c 0,90.3 -68.9,141 -167,141 -68.8,-0.1 -138.3,-24.1 -192.9,-72.8 z" />
        <path d="m 8205.2,1619.5 -17.7,20.7 c -14.6,-11.9 -28.9,-17.3 -45.2,-17.3 -35.4,0 -64.9,23.8 -64.9,94.5 0,67.6 28.2,94.2 64.6,94.2 22.1,0 36.4,-9.9 49.6,-19.7 l 16.3,20.7 c -12.6,13.3 -35.4,26.2 -67,26.2 -56.8,0 -97.9,-42.5 -97.9,-121.4 0,-79.2 44.2,-121 97.2,-121 29.7,0 46.3,8.2 65,23.1 z" />
        <path d="m 8407.5,1744.9 c 0,55.4 -29.2,93.8 -79.9,93.8 -51,0 -79.9,-36.7 -79.9,-93.5 0,-55.4 29.2,-93.8 80.2,-93.8 51.1,0.1 79.6,36.8 79.6,93.5 z m -126.1,0.4 c 0,46.6 16.3,68.3 46.2,68.3 29.9,0 46.2,-21.8 46.2,-68.7 0,-46.6 -16.3,-68.3 -45.9,-68.3 -29.8,0 -46.5,21.8 -46.5,68.7 z" />
        <path d="m 8609.1,1706.2 0,128.5 -31.3,0 0,-124.1 c 0,-26.8 -10.9,-34.7 -28.2,-34.7 -20.1,0 -33.7,12.6 -45.6,31.6 l 0,127.1 -31.3,0 0,-179.1 26.9,0 2.7,26.5 c 12.2,-18.4 31.3,-30.6 54.7,-30.6 33.1,0.1 52.1,20.8 52.1,54.8 z" />
        <path d="m 8795.1,1671.9 -13.3,19.7 c -16,-10.2 -29.9,-15.3 -46.6,-15.3 -20.4,0 -33,9.2 -33,23.4 0,14.6 9.5,21.4 38.4,28.9 37.7,9.5 59.5,24.5 59.5,55.7 0,37.4 -34.3,54.4 -70.7,54.4 -30.3,0 -52,-9.9 -67.6,-23.5 l 16.7,-19 c 14.3,10.9 30.9,17.3 50.3,17.3 23.5,0 38.4,-10.2 38.4,-27.2 0,-17.7 -8.8,-24.5 -43.5,-33.6 -38.8,-10.2 -54,-26.9 -54,-52 0,-28.6 27.5,-49.3 64.6,-49.3 25.1,0.1 43.8,7.5 60.8,20.5 z" />
        <path d="m 8991.2,1834.7 -26.9,0 -2.4,-27.9 c -13.6,21.8 -30.3,32 -55.7,32 -31.3,0 -50,-19.7 -50,-54.7 l 0,-128.5 31.3,0 0,125.1 c 0,24.5 8.2,33.7 27.5,33.7 19.4,0 34,-12.9 44.9,-30.9 l 0,-127.8 31.3,0 0,179 z" />
        <path d="m 9067.7,1799.3 0,-215.8 31.3,-3.7 0,218.9 c 0,9.5 3.1,14.3 11.2,14.3 4.4,0 8.2,-0.7 11.6,-2 l 8.2,21.8 c -6.8,3.7 -15.6,6.1 -24.8,6.1 -22.8,-0.1 -37.5,-14.1 -37.5,-39.6 z" />
        <path d="m 9273.1,1826.5 c -11.9,8.2 -24.8,12.2 -40.1,12.2 -30.3,0 -48.3,-17.7 -48.3,-51 l 0,-108.1 -31.3,0 0,-24.1 31.3,0 0,-40.4 31.3,-3.7 0,44.2 42.5,0 -3.4,24.1 -39.1,0 0,106.7 c 0,18 5.8,26.5 21.4,26.5 7.8,0 15,-2.4 23.8,-7.8 l 11.9,21.4 z" />
        <path d="m 9465.8,1744.9 c 0,55.4 -29.2,93.8 -79.9,93.8 -51,0 -79.9,-36.7 -79.9,-93.5 0,-55.4 29.2,-93.8 80.2,-93.8 51.1,0.1 79.6,36.8 79.6,93.5 z m -126.1,0.4 c 0,46.6 16.3,68.3 46.2,68.3 29.9,0 46.2,-21.8 46.2,-68.7 0,-46.6 -16.3,-68.3 -45.9,-68.3 -29.8,0 -46.5,21.8 -46.5,68.7 z" />
        <path d="m 9626.6,1653.5 -5.8,30.6 c -5.4,-1.4 -9.2,-2 -15.6,-2 -22.4,0 -35.3,16 -42.8,50.3 l 0,102.3 -31.3,0 0,-179.1 26.9,0 3.1,36.4 c 9.5,-26.8 26.2,-40.4 47.9,-40.4 5.7,-0.1 12.2,0.5 17.6,1.9 z" />
        <path d="m 9713.3,1591 c 0,11.9 -8.8,21.1 -22.1,21.1 -12.9,0 -21.8,-9.2 -21.8,-21.1 0,-12.2 8.8,-21.4 21.8,-21.4 13.3,-0.1 22.1,9.1 22.1,21.4 z m -6.1,243.7 -31.3,0 0,-179.1 31.3,0 0,179.1 z" />
        <path d="m 9921,1817 -7.1,21.8 c -18,-2 -29.6,-9.2 -35,-26.9 -12.6,18.7 -31.6,26.9 -53.4,26.9 -35.7,0 -57.1,-22.1 -57.1,-54 0,-38.4 28.9,-59.2 78.9,-59.2 l 27.5,0 0,-13.3 c 0,-25.8 -12.6,-35.3 -37.4,-35.3 -13.3,0 -29.9,3.4 -48.3,9.5 l -7.8,-22.8 c 22.1,-8.2 41.8,-12.2 61.9,-12.2 43.2,0 62.9,22.1 62.9,59.5 l 0,81.9 c 0,15.6 5.7,20.7 14.9,24.1 z m -46.2,-29.6 0,-41.1 -23.5,0 c -33,0 -49.6,12.2 -49.6,36.7 0,21.1 10.5,32.3 30.9,32.3 18.4,0 32,-9.2 42.2,-27.9 z" />
        <path d="m 10121.6,1834.7 -32.3,0 0,-234.2 32.3,0 0,234.2 z" />
        <path d="m 10337.8,1706.2 0,128.5 -31.3,0 0,-124.1 c 0,-26.8 -10.9,-34.7 -28.2,-34.7 -20.1,0 -33.7,12.6 -45.6,31.6 l 0,127.1 -31.3,0 0,-179.1 26.9,0 2.7,26.5 c 12.2,-18.4 31.3,-30.6 54.7,-30.6 33.1,0.1 52.1,20.8 52.1,54.8 z" />
        <path d="m 10504.7,1826.5 c -11.9,8.2 -24.8,12.2 -40.1,12.2 -30.3,0 -48.3,-17.7 -48.3,-51 l 0,-108.1 -31.3,0 0,-24.1 31.3,0 0,-40.4 31.3,-3.7 0,44.2 42.5,0 -3.4,24.1 -39.1,0 0,106.7 c 0,18 5.8,26.5 21.4,26.5 7.8,0 15,-2.4 23.8,-7.8 l 11.9,21.4 z" />
        <path d="m 10685.3,1755.8 -114.3,0 c 3.1,41.5 22.4,57.4 48.3,57.4 17.7,0 30.9,-4.8 46.6,-15.6 l 13.6,18.7 c -17.7,13.9 -37.7,22.4 -62.5,22.4 -50,0 -79.2,-35 -79.2,-91.8 0,-55.7 28.2,-95.5 74.4,-95.5 48.3,0 73.8,33.7 73.8,88.4 -0.1,6.2 -0.4,11.9 -0.7,16 z m -30.3,-25.1 c 0,-35 -13.9,-54.4 -42.1,-54.4 -23.8,0 -39.4,16.7 -41.8,56.4 l 84,0 0,-2 z" />
        <path d="m 10895.7,1663.7 c -15,4.8 -32,5.4 -52.4,5.4 21.1,9.5 31.6,24.5 31.6,45.2 0,35.4 -25.5,60.8 -68.3,60.8 -8.2,0 -15.3,-1 -22.8,-3.4 -5.1,3.7 -8.8,10.2 -8.8,16.7 0,8.2 5.1,14.6 23.5,14.6 l 28.6,0 c 36.7,0 61.2,21.1 61.2,49.6 0,34.7 -28.6,54.4 -84,54.4 -58.5,0 -76.8,-18 -76.8,-54.4 l 28.2,0 c 0,20.4 9.2,29.9 48.6,29.9 38.8,0 52.4,-9.9 52.4,-27.9 0,-17 -13.6,-25.5 -36,-25.5 l -28.2,0 c -32,0 -46.2,-16 -46.2,-34 0,-11.6 6.8,-23.1 19.7,-31.6 -20.7,-10.9 -30.3,-26.5 -30.3,-49.6 0,-36.7 29.6,-62.5 69,-62.5 44.5,1 60.8,-6.5 81.9,-16 l 9.1,28.3 z m -128.2,50.3 c 0,23.8 13.3,40.4 37.7,40.4 24.5,0 37.7,-15 37.7,-40.8 0,-26.2 -12.9,-39.8 -38.4,-39.8 -24,0.1 -37,16.8 -37,40.2 z" />
        <path d="m 11037.1,1653.5 -5.8,30.6 c -5.4,-1.4 -9.2,-2 -15.6,-2 -22.4,0 -35.3,16 -42.8,50.3 l 0,102.3 -31.3,0 0,-179.1 26.9,0 3.1,36.4 c 9.5,-26.8 26.2,-40.4 47.9,-40.4 5.7,-0.1 12.2,0.5 17.6,1.9 z" />
        <path d="m 11222.1,1817 -7.1,21.8 c -18,-2 -29.6,-9.2 -35,-26.9 -12.6,18.7 -31.6,26.9 -53.4,26.9 -35.7,0 -57.1,-22.1 -57.1,-54 0,-38.4 28.9,-59.2 78.9,-59.2 l 27.5,0 0,-13.3 c 0,-25.8 -12.6,-35.3 -37.4,-35.3 -13.3,0 -29.9,3.4 -48.3,9.5 l -7.8,-22.8 c 22.1,-8.2 41.8,-12.2 61.9,-12.2 43.2,0 62.9,22.1 62.9,59.5 l 0,81.9 c -0.1,15.6 5.7,20.7 14.9,24.1 z m -46.3,-29.6 0,-41.1 -23.5,0 c -33,0 -49.6,12.2 -49.6,36.7 0,21.1 10.5,32.3 30.9,32.3 18.4,0 32,-9.2 42.2,-27.9 z" />
        <path d="m 11423.7,1583.5 0,251.2 -27.5,0 -3.1,-24.8 c -11.6,18 -29.6,28.9 -51.7,28.9 -43.5,0 -67.6,-37.1 -67.6,-92.8 0,-54.7 26.5,-94.5 70.4,-94.5 21.1,0 36.4,9.5 48.3,22.1 l 0,-93.8 31.2,3.7 z m -31.3,203.9 0,-87.7 c -11.2,-14.3 -23.8,-23.4 -41.5,-23.4 -26.9,0 -43.5,22.4 -43.5,69 0,47.3 15,68.7 40.8,68.7 20,-0.1 32.3,-9.9 44.2,-26.6 z" />
        <path d="m 11637.5,1817 -7.1,21.8 c -18,-2 -29.6,-9.2 -35,-26.9 -12.6,18.7 -31.6,26.9 -53.4,26.9 -35.7,0 -57.1,-22.1 -57.1,-54 0,-38.4 28.9,-59.2 78.9,-59.2 l 27.5,0 0,-13.3 c 0,-25.8 -12.6,-35.3 -37.4,-35.3 -13.3,0 -29.9,3.4 -48.3,9.5 l -7.8,-22.8 c 22.1,-8.2 41.8,-12.2 61.9,-12.2 43.2,0 62.9,22.1 62.9,59.5 l 0,81.9 c -0.1,15.6 5.7,20.7 14.9,24.1 z m -46.2,-29.6 0,-41.1 -23.5,0 c -33,0 -49.6,12.2 -49.6,36.7 0,21.1 10.5,32.3 30.9,32.3 18.4,0 32,-9.2 42.2,-27.9 z" />
      </g>
      <g transform="translate(-5322.6483,387.10169)">
        <path fill="#BE0000" d="M 7497.4,1412.4 C 7475.2,1009 7165.6,682.3 6769.9,633.5 c 0.2,0 0.5,-0.1 0.7,-0.1 -33.5,-4.1 -67.6,-6.2 -102.2,-6.2 -459.3,0 -831.7,372.4 -831.7,831.7 0,459.3 372.4,831.7 831.7,831.7 32.6,0 64.7,-1.9 96.3,-5.5 -396,-48.5 -706,-375.5 -728.2,-779.1 -1.1,-15.6 -1.7,-31.3 -1.7,-47.1 0,-17.4 0.7,-34.5 2.1,-51.5 1,-16.5 2.5,-32.9 4.5,-49.2 48.3,-302 310,-532.8 625.6,-532.8 34.6,0 68.5,2.8 101.5,8.1 301.6,48.6 532,310.1 532,625.5 0,316.9 -232.7,579.5 -536.5,626.2 33.1,5.3 67,8.1 101.5,8.1 332.5,0 605.3,-256.2 631.5,-582 1.1,-17.3 1.6,-34.7 1.6,-52.3 0.1,-15.7 -0.4,-31.2 -1.2,-46.6 z" />
        <path fill="#780000" d="m 6924,638.7 c -32.6,0 -64.7,1.9 -96.3,5.5 396,48.5 706,375.5 728.2,779 1.1,15.6 1.7,31.3 1.7,47.1 0,17.4 -0.7,34.6 -2.1,51.6 l 0,0 c -26.2,325.8 -298.9,582 -631.5,582 -34.6,0 -68.5,-2.8 -101.5,-8.1 -301.6,-48.6 -532,-310.1 -532,-625.5 0,-316.9 232.7,-579.5 536.5,-626.2 -33.1,-5.3 -67,-8.1 -101.5,-8.1 -332.6,0 -605.3,256.2 -631.5,582 -1.1,17.3 -1.6,34.7 -1.6,52.2 0,15.6 0.4,31 1.3,46.4 22.2,403.6 332.1,730.5 728.2,779.1 l 0,0 c 33.5,4.1 67.6,6.2 102.2,6.2 459.3,0 831.7,-372.4 831.7,-831.7 C 7755.6,1011 7383.3,638.7 6924,638.7 Z" />
      </g>
    </g>
  </g>
</svg>
