<?xml version="1.0" encoding="utf-8"?>
<!-- Generator: Adobe Illustrator 17.0.0, SVG Export Plug-In . SVG Version: 6.00 Build 0)  -->
<!DOCTYPE svg PUBLIC "-//W3C//DTD SVG 1.1//EN" "http://www.w3.org/Graphics/SVG/1.1/DTD/svg11.dtd">
<svg version="1.1" xmlns="http://www.w3.org/2000/svg" xmlns:xlink="http://www.w3.org/1999/xlink" x="0px" y="0px"
	 width="4534.8px" height="3806.5px" viewBox="0 0 4534.8 3806.5" style="enable-background:new 0 0 4534.8 3806.5;"
	 xml:space="preserve">
<style type="text/css">
	.st0{display:none;}
	.st1{fill:#BE0000;}
	.st2{fill:none;}
	.st3{fill:#780000;}
	.st4{fill:#37474F;}
	.st5{fill:none;stroke:#FFFFFF;stroke-miterlimit:10;}
	.st6{fill:#848484;}
	.st7{fill:#494949;}
	.st8{fill:#434343;}
</style>
<g id="Layer_2" class="st0">
</g>
<g id="Camada_1">
	<path id="XMLID_783_" class="st1" d="M2990.8-3028.5c-22.5-409.9-337.4-741.9-739.6-791.3c-34-4.2-68.7-6.3-103.8-6.3
		c-466.5,0-844.7,378.2-844.7,844.7c0,466.5,378.2,844.7,844.7,844.7c33.1,0,65.7-1.9,97.8-5.6c-402.2-49.3-717-381.4-739.6-791.3
		c-1.2-15.8-1.8-31.7-1.8-47.8c0-17.6,0.7-35.1,2.1-52.3c26.6-330.9,303.6-591.2,641.4-591.2c35.1,0,69.5,2.8,103.1,8.2
		c306.4,49.3,540.4,315,540.4,635.3c0,321.9-236.3,588.6-544.9,636c33.6,5.4,68,8.2,103.1,8.2c337.8,0,614.8-260.2,641.4-591.1
		c1.1-17.6,1.6-35.3,1.6-53.1C2992.1-2997.2,2991.6-3012.9,2990.8-3028.5z"/>
	<g id="XMLID_784_">
		<rect id="XMLID_785_" x="1671.6" y="-3128.9" width="37.1" height="5.5"/>
	</g>
	<path id="XMLID_786_" class="st2" d="M2990.4-3035.1c1.4-17.3,2.1-34.7,2.1-52.4c0-16.1-0.6-32.1-1.8-47.9
		c0.9,15.6,1.3,31.3,1.3,47.1C2992.1-3070.4,2991.5-3052.7,2990.4-3035.1z"/>
	<path id="XMLID_787_" class="st2" d="M2790.9-2981.4c0-320.3-234-585.9-540.4-635.3c-308.6,47.4-544.9,314.1-544.9,636
		c0,320.3,234,585.9,540.4,635.3C2554.5-2392.8,2790.9-2659.5,2790.9-2981.4z"/>
	<path id="XMLID_788_" class="st2" d="M1506-3140.6c-1.4,17.3-2.1,34.7-2.1,52.3c0,16.1,0.6,32,1.8,47.8
		c-0.9-15.6-1.3-31.3-1.3-47.1C1504.3-3105.3,1504.9-3123,1506-3140.6z"/>
	<path id="XMLID_789_" class="st3" d="M2386.5-3819.8c-33.1,0-65.7,1.9-97.8,5.6c402.2,49.3,717,381.3,739.6,791.3
		c1.2,15.8,1.8,31.8,1.8,47.9c0,17.6-0.7,35.1-2.1,52.4c-26.6,330.9-303.6,591.1-641.4,591.1c-35.1,0-69.5-2.8-103.1-8.2
		c-306.4-49.3-540.4-315-540.4-635.3c0-321.9,236.3-587,544.9-634.4c-33.6-5.4-68-9.8-103.1-9.8c-337.8,0-614.8,260.2-641.4,591.2
		c-1.1,17.5-1.6,35.2-1.6,53.1c0,15.8,0.4,31.5,1.3,47.1c22.5,409.9,337.3,742,739.6,791.3c34,4.2,68.7,6.3,103.8,6.3
		c466.5,0,844.7-378.2,844.7-844.7C3231.2-3441.6,2853-3819.8,2386.5-3819.8z"/>
	<g id="XMLID_790_">
		<g id="XMLID_791_">
			<path id="XMLID_792_" class="st4" d="M793.3-1838.4h152.5c89,0,142.9,52.8,142.9,129v1.1c0,86.4-67.2,131.1-150.9,131.1h-62.4
				v112h-82.1V-1838.4z M940.4-1650.2c41,0,65-24.5,65-56.5v-1.1c0-36.8-25.6-56.5-66.6-56.5h-63.4v114.1H940.4z"/>
			<path id="XMLID_795_" class="st4" d="M1156.7-1838.4h170.6c47.4,0,84.2,13.3,108.8,37.9c20.8,20.8,32,50.1,32,85.3v1.1
				c0,60.2-32.5,98.1-80,115.7l91.2,133.3h-96l-80-119.4h-1.1h-63.4v119.4h-82.1V-1838.4z M1321.9-1657.1c40,0,62.9-21.3,62.9-52.8
				v-1.1c0-35.2-24.5-53.3-64.5-53.3h-81.6v107.2H1321.9z"/>
			<path id="XMLID_798_" class="st4" d="M1535.9-1650.7v-1.1c0-106.1,83.7-193,198.8-193c115.2,0,197.8,85.8,197.8,191.9v1.1
				c0,106.1-83.7,193-198.8,193C1618.5-1458.8,1535.9-1544.7,1535.9-1650.7z M1846.7-1650.7v-1.1c0-64-46.9-117.3-113-117.3
				c-66.1,0-112,52.2-112,116.2v1.1c0,64,46.9,117.3,113,117.3S1846.7-1586.8,1846.7-1650.7z"/>
			<path id="XMLID_801_" class="st4" d="M1960-1515.9l51.7-57.6c21.3,23.5,42.1,37.3,68.2,37.3c30.9,0,50.1-18.7,50.1-61.8v-240.4
				h84.2v244.2c0,44.2-12.8,77.3-35.2,99.7c-22.9,22.9-56.5,34.7-97,34.7C2023.9-1459.9,1985.6-1485.5,1960-1515.9z"/>
			<path id="XMLID_803_" class="st4" d="M2295.9-1838.4h282.5v73h-200.9v75.7h187.2v73h-187.2v78.4h200.9v73h-282.5V-1838.4z"/>
			<path id="XMLID_805_" class="st4" d="M2760.1-1762.7h-113.6v-75.7h309.2v75.7h-113.6v297.5h-82.1V-1762.7z"/>
			<path id="XMLID_807_" class="st4" d="M2995.9-1650.7v-1.1c0-106.1,83.7-193,198.8-193c115.2,0,197.8,85.8,197.8,191.9v1.1
				c0,106.1-83.7,193-198.8,193C3078.6-1458.8,2995.9-1544.7,2995.9-1650.7z M3306.7-1650.7v-1.1c0-64-46.9-117.3-113-117.3
				c-66.1,0-112,52.2-112,116.2v1.1c0,64,46.9,117.3,113,117.3S3306.7-1586.8,3306.7-1650.7z"/>
			<path id="XMLID_810_" class="st4" d="M3446.2-1519.6l48.5-58.1c33.6,27.7,68.8,45.3,111.4,45.3c33.6,0,53.8-13.3,53.8-35.2v-1.1
				c0-20.8-12.8-31.5-75.2-47.4c-75.2-19.2-123.7-40-123.7-114.1v-1.1c0-67.7,54.4-112.5,130.6-112.5c54.4,0,100.8,17.1,138.6,47.4
				l-42.6,61.8c-33.1-22.9-65.6-36.8-97-36.8c-31.5,0-48,14.4-48,32.5v1.1c0,24.5,16,32.5,80.5,49c75.7,19.7,118.3,46.9,118.3,111.9
				v1.1c0,74.1-56.5,115.7-137,115.7C3548-1459.9,3491-1479.6,3446.2-1519.6z"/>
		</g>
		<g id="XMLID_812_">
			<path id="XMLID_813_" class="st4" d="M1075.2-1369.1l-12.9,15.2c-10.7-8.7-21.2-12.7-33.1-12.7c-25.9,0-47.5,17.4-47.5,69.2
				c0,49.5,20.7,68.9,47.3,68.9c16.2,0,26.6-7.2,36.3-14.4l11.9,15.2c-9.2,9.7-25.9,19.2-49,19.2c-41.6,0-71.7-31.1-71.7-88.8
				c0-58,32.4-88.6,71.2-88.6C1049.3-1386,1061.5-1380,1075.2-1369.1z"/>
			<path id="XMLID_815_" class="st4" d="M1223.3-1277.2c0,40.6-21.4,68.7-58.5,68.7c-37.3,0-58.5-26.9-58.5-68.4
				c0-40.6,21.4-68.7,58.7-68.7C1202.4-1345.7,1223.3-1318.8,1223.3-1277.2z M1131-1277c0,34.1,11.9,50,33.8,50
				c21.9,0,33.8-15.9,33.8-50.3c0-34.1-11.9-50-33.6-50C1143.2-1327.3,1131-1311.3,1131-1277z"/>
			<path id="XMLID_818_" class="st4" d="M1370.9-1305.6v94.1H1348v-90.8c0-19.7-8-25.4-20.7-25.4c-14.7,0-24.6,9.2-33.4,23.1v93.1
				h-22.9v-131.2h19.7l2,19.4c9-13.4,22.9-22.4,40.1-22.4C1357-1345.7,1370.9-1330.5,1370.9-1305.6z"/>
			<path id="XMLID_820_" class="st4" d="M1507.1-1330.7l-9.7,14.4c-11.7-7.5-21.9-11.2-34.1-11.2c-14.9,0-24.1,6.7-24.1,17.2
				c0,10.7,7,15.7,28.1,21.2c27.6,7,43.6,17.9,43.6,40.8c0,27.4-25.1,39.8-51.8,39.8c-22.1,0-38.1-7.2-49.5-17.2l12.2-13.9
				c10.5,8,22.6,12.7,36.8,12.7c17.2,0,28.1-7.5,28.1-19.9c0-12.9-6.5-17.9-31.9-24.6c-28.4-7.5-39.6-19.7-39.6-38.1
				c0-20.9,20.2-36.1,47.3-36.1C1480.9-1345.7,1494.6-1340.2,1507.1-1330.7z"/>
			<path id="XMLID_822_" class="st4" d="M1650.7-1211.5H1631l-1.7-20.4c-10,15.9-22.1,23.4-40.8,23.4c-22.9,0-36.6-14.4-36.6-40.1
				v-94.1h22.9v91.6c0,17.9,6,24.6,20.2,24.6c14.2,0,24.9-9.5,32.8-22.6v-93.6h22.9V-1211.5z"/>
			<path id="XMLID_824_" class="st4" d="M1706.7-1237.4v-158l22.9-2.7v160.3c0,7,2.2,10.5,8.2,10.5c3.2,0,6-0.5,8.5-1.5l6,15.9
				c-5,2.7-11.4,4.5-18.2,4.5C1717.4-1208.5,1706.7-1218.7,1706.7-1237.4z"/>
			<path id="XMLID_826_" class="st4" d="M1857-1217.5c-8.7,6-18.2,9-29.4,9c-22.2,0-35.3-12.9-35.3-37.3v-79.1h-22.9v-17.7h22.9
				v-29.6l22.9-2.7v32.3h31.1l-2.5,17.7h-28.6v78.1c0,13.2,4.2,19.4,15.7,19.4c5.7,0,10.9-1.7,17.4-5.7L1857-1217.5z"/>
			<path id="XMLID_828_" class="st4" d="M1998.1-1277.2c0,40.6-21.4,68.7-58.5,68.7c-37.3,0-58.5-26.9-58.5-68.4
				c0-40.6,21.4-68.7,58.7-68.7C1977.2-1345.7,1998.1-1318.8,1998.1-1277.2z M1905.8-1277c0,34.1,11.9,50,33.8,50
				c21.9,0,33.8-15.9,33.8-50.3c0-34.1-11.9-50-33.6-50C1918-1327.3,1905.8-1311.3,1905.8-1277z"/>
			<path id="XMLID_831_" class="st4" d="M2115.9-1344.2l-4.2,22.4c-4-1-6.7-1.5-11.5-1.5c-16.4,0-25.9,11.7-31.4,36.8v74.9h-22.9
				v-131.2h19.7l2.2,26.6c7-19.7,19.2-29.6,35.1-29.6C2107.2-1345.7,2111.9-1345.2,2115.9-1344.2z"/>
			<path id="XMLID_833_" class="st4" d="M2179.4-1390c0,8.7-6.5,15.4-16.2,15.4c-9.5,0-15.9-6.7-15.9-15.4c0-9,6.5-15.7,15.9-15.7
				C2172.9-1405.7,2179.4-1398.9,2179.4-1390z M2174.9-1211.5H2152v-131.2h22.9V-1211.5z"/>
			<path id="XMLID_836_" class="st4" d="M2331.4-1224.5l-5.2,15.9c-13.2-1.5-21.7-6.7-25.6-19.7c-9.2,13.7-23.1,19.7-39.1,19.7
				c-26.1,0-41.8-16.2-41.8-39.6c0-28.1,21.2-43.3,57.7-43.3h20.2v-9.7c0-18.9-9.2-25.9-27.4-25.9c-9.7,0-21.9,2.5-35.3,7l-5.7-16.7
				c16.2-6,30.6-9,45.3-9c31.6,0,46,16.2,46,43.6v60C2320.5-1230.7,2324.7-1227,2331.4-1224.5z M2297.6-1246.1v-30.1h-17.2
				c-24.1,0-36.3,9-36.3,26.9c0,15.4,7.7,23.6,22.6,23.6C2280.2-1225.7,2290.1-1232.4,2297.6-1246.1z"/>
			<path id="XMLID_839_" class="st4" d="M2478.3-1211.5h-23.6V-1383h23.6V-1211.5z"/>
			<path id="XMLID_841_" class="st4" d="M2636.6-1305.6v94.1h-22.9v-90.8c0-19.7-8-25.4-20.7-25.4c-14.7,0-24.6,9.2-33.4,23.1v93.1
				h-22.9v-131.2h19.7l2,19.4c9-13.4,22.9-22.4,40.1-22.4C2622.6-1345.7,2636.6-1330.5,2636.6-1305.6z"/>
			<path id="XMLID_843_" class="st4" d="M2758.8-1217.5c-8.7,6-18.2,9-29.4,9c-22.2,0-35.3-12.9-35.3-37.3v-79.1h-22.9v-17.7h22.9
				v-29.6l22.9-2.7v32.3h31.1l-2.5,17.7H2717v78.1c0,13.2,4.2,19.4,15.7,19.4c5.7,0,10.9-1.7,17.4-5.7L2758.8-1217.5z"/>
			<path id="XMLID_845_" class="st4" d="M2891-1269.3h-83.6c2.2,30.4,16.4,42.1,35.3,42.1c12.9,0,22.6-3.5,34.1-11.5l10,13.7
				c-12.9,10.2-27.6,16.4-45.8,16.4c-36.6,0-58-25.6-58-67.2c0-40.8,20.7-69.9,54.5-69.9c35.3,0,54,24.6,54,64.7
				C2891.5-1276.5,2891.2-1272.3,2891-1269.3z M2868.8-1287.7c0-25.6-10.2-39.8-30.9-39.8c-17.4,0-28.9,12.2-30.6,41.3h61.5V-1287.7
				z"/>
			<path id="XMLID_848_" class="st4" d="M3045-1336.7c-11,3.5-23.4,4-38.3,4c15.4,7,23.1,17.9,23.1,33.1c0,25.9-18.7,44.5-50,44.5
				c-6,0-11.2-0.7-16.7-2.5c-3.7,2.7-6.5,7.5-6.5,12.2c0,6,3.7,10.7,17.2,10.7h20.9c26.9,0,44.8,15.4,44.8,36.3
				c0,25.4-20.9,39.8-61.5,39.8c-42.8,0-56.2-13.2-56.2-39.8h20.7c0,14.9,6.7,21.9,35.6,21.9c28.4,0,38.3-7.2,38.3-20.4
				c0-12.4-10-18.7-26.4-18.7h-20.7c-23.4,0-33.8-11.7-33.8-24.9c0-8.5,5-16.9,14.4-23.1c-15.2-8-22.1-19.4-22.1-36.3
				c0-26.9,21.7-45.8,50.5-45.8c32.6,0.7,44.5-4.7,60-11.7L3045-1336.7z M2951.2-1299.9c0,17.4,9.7,29.6,27.6,29.6
				c17.9,0,27.6-10.9,27.6-29.9c0-19.2-9.5-29.1-28.1-29.1C2960.7-1329.2,2951.2-1317.1,2951.2-1299.9z"/>
			<path id="XMLID_851_" class="st4" d="M3148.6-1344.2l-4.2,22.4c-4-1-6.7-1.5-11.5-1.5c-16.4,0-25.9,11.7-31.4,36.8v74.9h-22.9
				v-131.2h19.7l2.2,26.6c7-19.7,19.2-29.6,35.1-29.6C3139.9-1345.7,3144.6-1345.2,3148.6-1344.2z"/>
			<path id="XMLID_853_" class="st4" d="M3284-1224.5l-5.2,15.9c-13.2-1.5-21.7-6.7-25.6-19.7c-9.2,13.7-23.1,19.7-39.1,19.7
				c-26.1,0-41.8-16.2-41.8-39.6c0-28.1,21.2-43.3,57.7-43.3h20.2v-9.7c0-18.9-9.2-25.9-27.4-25.9c-9.7,0-21.9,2.5-35.3,7l-5.7-16.7
				c16.2-6,30.6-9,45.3-9c31.6,0,46,16.2,46,43.6v60C3273-1230.7,3277.3-1227,3284-1224.5z M3250.1-1246.1v-30.1H3233
				c-24.1,0-36.3,9-36.3,26.9c0,15.4,7.7,23.6,22.6,23.6C3232.7-1225.7,3242.7-1232.4,3250.1-1246.1z"/>
			<path id="XMLID_856_" class="st4" d="M3431.6-1395.4v183.9h-20.2l-2.2-18.2c-8.5,13.2-21.7,21.2-37.8,21.2
				c-31.9,0-49.5-27.1-49.5-67.9c0-40.1,19.4-69.2,51.5-69.2c15.4,0,26.6,7,35.3,16.2v-68.7L3431.6-1395.4z M3408.7-1246.1v-64.2
				c-8.2-10.4-17.4-17.2-30.4-17.2c-19.7,0-31.9,16.4-31.9,50.5c0,34.6,10.9,50.3,29.9,50.3C3391-1226.7,3400-1233.9,3408.7-1246.1z
				"/>
			<path id="XMLID_859_" class="st4" d="M3588.1-1224.5l-5.2,15.9c-13.2-1.5-21.7-6.7-25.6-19.7c-9.2,13.7-23.1,19.7-39.1,19.7
				c-26.1,0-41.8-16.2-41.8-39.6c0-28.1,21.2-43.3,57.7-43.3h20.2v-9.7c0-18.9-9.2-25.9-27.4-25.9c-9.7,0-21.9,2.5-35.3,7l-5.7-16.7
				c16.2-6,30.6-9,45.3-9c31.6,0,46,16.2,46,43.6v60C3577.2-1230.7,3581.4-1227,3588.1-1224.5z M3554.3-1246.1v-30.1h-17.2
				c-24.1,0-36.3,9-36.3,26.9c0,15.4,7.7,23.6,22.6,23.6C3536.9-1225.7,3546.8-1232.4,3554.3-1246.1z"/>
		</g>
	</g>
	<g id="XMLID_882_">
		<rect id="XMLID_901_" x="6155.6" y="-2531.6" width="37.1" height="5.5"/>
	</g>
	<path id="XMLID_902_" class="st2" d="M5990-2543.3c-1.4,17.3-2.1,34.7-2.1,52.3c0,16.1,0.6,32,1.8,47.8
		c-0.9-15.6-1.3-31.3-1.3-47.1C5988.3-2508.1,5988.9-2525.8,5990-2543.3z"/>
	<g id="XMLID_903_">
		<path id="XMLID_904_" class="st1" d="M7512-2115.4c-22.5-409.9-337.4-741.9-739.6-791.3c-34-4.2-68.7-6.3-103.8-6.3
			c-466.5,0-844.7,378.2-844.7,844.7c0,466.5,378.2,844.7,844.7,844.7c33.1,0,65.7-1.9,97.8-5.6c-402.2-49.3-717-381.4-739.6-791.3
			c-1.2-15.8-1.8-31.7-1.8-47.8c0-17.6,0.7-35.1,2.1-52.3c26.6-330.9,303.6-591.2,641.4-591.2c35.1,0,69.5,2.8,103.1,8.2
			c306.4,49.3,540.4,315,540.4,635.3c0,321.9-236.3,588.6-544.9,636c33.6,5.4,68,8.2,103.1,8.2c337.8,0,614.8-260.2,641.4-591.1
			c1.1-17.6,1.6-35.3,1.6-53.1C7513.3-2084,7512.9-2099.8,7512-2115.4z"/>
		<path id="XMLID_905_" class="st2" d="M7511.7-2122c1.4-17.3,2.1-34.7,2.1-52.4c0-16.1-0.6-32.1-1.8-47.9
			c0.9,15.6,1.3,31.3,1.3,47.1C7513.3-2157.2,7512.8-2139.5,7511.7-2122z"/>
		<path id="XMLID_906_" class="st2" d="M7312.1-2068.2c0-320.3-234-585.9-540.4-635.3c-308.6,47.4-544.9,314.1-544.9,636
			c0,320.3,234,585.9,540.4,635.3C7075.8-1479.7,7312.1-1746.3,7312.1-2068.2z"/>
		<path id="XMLID_907_" class="st3" d="M6907.7-2906.6c-33.1,0-65.7,1.9-97.8,5.6c402.2,49.3,717,381.3,739.6,791.3
			c1.2,15.8,1.8,31.8,1.8,47.9c0,17.6-0.7,35.1-2.1,52.4c-26.6,330.9-303.6,591.1-641.4,591.1c-35.1,0-69.5-2.8-103.1-8.2
			c-306.4-49.3-540.4-315-540.4-635.3c0-321.9,236.3-587,544.9-634.4c-33.6-5.4-68-9.8-103.1-9.8c-337.8,0-614.8,260.2-641.4,591.2
			c-1.1,17.5-1.6,35.2-1.6,53.1c0,15.8,0.4,31.5,1.3,47.1c22.5,409.9,337.3,742,739.6,791.3c34,4.2,68.7,6.3,103.8,6.3
			c466.5,0,844.7-378.2,844.7-844.7C7752.4-2528.4,7374.2-2906.6,6907.7-2906.6z"/>
	</g>
	<g id="XMLID_908_">
		<g id="XMLID_909_">
			<path id="XMLID_910_" class="st4" d="M8044.8-2407.7h185.8c108.5,0,174.1,64.3,174.1,157.2v1.3c0,105.2-81.9,159.8-183.8,159.8
				h-76v136.4h-100V-2407.7z M8224.1-2178.4c50,0,79.3-29.9,79.3-68.9v-1.3c0-44.8-31.2-68.9-81.2-68.9h-77.3v139H8224.1z"/>
			<path id="XMLID_913_" class="st4" d="M8487.6-2407.7h207.9c57.8,0,102.6,16.2,132.5,46.1c25.3,25.3,39,61.1,39,103.9v1.3
				c0,73.4-39.6,119.5-97.4,141l111.1,162.4h-116.9l-97.4-145.5h-1.3h-77.3v145.5h-100V-2407.7z M8689-2186.9
				c48.7,0,76.7-26,76.7-64.3v-1.3c0-42.9-29.9-65-78.6-65h-99.4v130.6H8689z"/>
			<path id="XMLID_916_" class="st4" d="M8949.7-2179.1v-1.3c0-129.3,102-235.2,242.3-235.2c140.3,0,241,104.6,241,233.9v1.3
				c0,129.3-102,235.2-242.3,235.2C9050.4-1945.2,8949.7-2049.8,8949.7-2179.1z M9328.5-2179.1v-1.3c0-78-57.2-142.9-137.7-142.9
				c-80.6,0-136.4,63.7-136.4,141.6v1.3c0,78,57.2,142.9,137.7,142.9C9272.6-2037.5,9328.5-2101.1,9328.5-2179.1z"/>
			<path id="XMLID_919_" class="st4" d="M9466.5-2014.7l63-70.2c26,28.6,51.3,45.5,83.2,45.5c37.7,0,61.1-22.7,61.1-75.4v-293h102.6
				v297.5c0,53.9-15.6,94.2-42.9,121.5c-27.9,27.9-68.9,42.2-118.2,42.2C9544.5-1946.5,9497.7-1977.7,9466.5-2014.7z"/>
			<path id="XMLID_921_" class="st4" d="M9875.8-2407.7h344.2v89h-244.8v92.2h228.1v89h-228.1v95.5h244.8v89h-344.2V-2407.7z"/>
			<path id="XMLID_923_" class="st4" d="M10441.5-2315.5h-138.4v-92.2h376.8v92.2h-138.4v362.5h-100V-2315.5z"/>
			<path id="XMLID_925_" class="st4" d="M10728.9-2179.1v-1.3c0-129.3,102-235.2,242.3-235.2c140.3,0,241,104.6,241,233.9v1.3
				c0,129.3-102,235.2-242.3,235.2C10829.6-1945.2,10728.9-2049.8,10728.9-2179.1z M11107.6-2179.1v-1.3
				c0-78-57.2-142.9-137.7-142.9c-80.6,0-136.4,63.7-136.4,141.6v1.3c0,78,57.2,142.9,137.7,142.9
				C11051.8-2037.5,11107.6-2101.1,11107.6-2179.1z"/>
			<path id="XMLID_928_" class="st4" d="M11277.6-2019.3l59.1-70.8c40.9,33.8,83.8,55.2,135.8,55.2c40.9,0,65.6-16.2,65.6-42.9v-1.3
				c0-25.3-15.6-38.3-91.6-57.8c-91.6-23.4-150.7-48.7-150.7-139v-1.3c0-82.5,66.3-137.1,159.2-137.1c66.3,0,122.8,20.8,168.9,57.8
				l-52,75.4c-40.3-27.9-79.9-44.8-118.2-44.8c-38.3,0-58.5,17.5-58.5,39.6v1.3c0,29.9,19.5,39.6,98.1,59.8
				c92.2,24,144.2,57.2,144.2,136.4v1.3c0,90.3-68.9,141-167,141C11401.7-1946.5,11332.2-1970.5,11277.6-2019.3z"/>
		</g>
		<path id="XMLID_930_" class="st4" d="M8205.2-1830.4l-17.7,20.7c-14.6-11.9-28.9-17.3-45.2-17.3c-35.4,0-64.9,23.8-64.9,94.5
			c0,67.6,28.2,94.2,64.6,94.2c22.1,0,36.4-9.9,49.6-19.7l16.3,20.7c-12.6,13.3-35.4,26.2-67,26.2c-56.8,0-97.9-42.5-97.9-121.4
			c0-79.2,44.2-121,97.2-121C8169.9-1853.6,8186.5-1845.4,8205.2-1830.4z"/>
		<path id="XMLID_932_" class="st4" d="M8407.5-1705c0,55.4-29.2,93.8-79.9,93.8c-51,0-79.9-36.7-79.9-93.5
			c0-55.4,29.2-93.8,80.2-93.8C8379-1798.5,8407.5-1761.8,8407.5-1705z M8281.4-1704.7c0,46.6,16.3,68.3,46.2,68.3
			c29.9,0,46.2-21.8,46.2-68.7c0-46.6-16.3-68.3-45.9-68.3C8298.1-1773.3,8281.4-1751.6,8281.4-1704.7z"/>
		<path id="XMLID_935_" class="st4" d="M8609.1-1743.8v128.5h-31.3v-124.1c0-26.8-10.9-34.7-28.2-34.7c-20.1,0-33.7,12.6-45.6,31.6
			v127.1h-31.3v-179.1h26.9l2.7,26.5c12.2-18.4,31.3-30.6,54.7-30.6C8590.1-1798.5,8609.1-1777.8,8609.1-1743.8z"/>
		<path id="XMLID_937_" class="st4" d="M8795.1-1778.1l-13.3,19.7c-16-10.2-29.9-15.3-46.6-15.3c-20.4,0-33,9.2-33,23.4
			c0,14.6,9.5,21.4,38.4,28.9c37.7,9.5,59.5,24.5,59.5,55.7c0,37.4-34.3,54.4-70.7,54.4c-30.3,0-52-9.9-67.6-23.5l16.7-19
			c14.3,10.9,30.9,17.3,50.3,17.3c23.5,0,38.4-10.2,38.4-27.2c0-17.7-8.8-24.5-43.5-33.6c-38.8-10.2-54-26.9-54-52
			c0-28.6,27.5-49.3,64.6-49.3C8759.4-1798.5,8778.1-1791,8795.1-1778.1z"/>
		<path id="XMLID_939_" class="st4" d="M8991.2-1615.3h-26.9l-2.4-27.9c-13.6,21.8-30.3,32-55.7,32c-31.3,0-50-19.7-50-54.7v-128.5
			h31.3v125.1c0,24.5,8.2,33.7,27.5,33.7c19.4,0,34-12.9,44.9-30.9v-127.8h31.3V-1615.3z"/>
		<path id="XMLID_941_" class="st4" d="M9067.7-1650.6v-215.8l31.3-3.7v218.9c0,9.5,3.1,14.3,11.2,14.3c4.4,0,8.2-0.7,11.6-2
			l8.2,21.8c-6.8,3.7-15.6,6.1-24.8,6.1C9082.4-1611.2,9067.7-1625.1,9067.7-1650.6z"/>
		<path id="XMLID_943_" class="st4" d="M9273.1-1623.4c-11.9,8.2-24.8,12.2-40.1,12.2c-30.3,0-48.3-17.7-48.3-51v-108.1h-31.3v-24.1
			h31.3v-40.4l31.3-3.7v44.2h42.5l-3.4,24.1H9216v106.7c0,18,5.8,26.5,21.4,26.5c7.8,0,15-2.4,23.8-7.8L9273.1-1623.4z"/>
		<path id="XMLID_945_" class="st4" d="M9465.8-1705c0,55.4-29.2,93.8-79.9,93.8c-51,0-79.9-36.7-79.9-93.5
			c0-55.4,29.2-93.8,80.2-93.8C9437.3-1798.5,9465.8-1761.8,9465.8-1705z M9339.7-1704.7c0,46.6,16.3,68.3,46.2,68.3
			c29.9,0,46.2-21.8,46.2-68.7c0-46.6-16.3-68.3-45.9-68.3C9356.4-1773.3,9339.7-1751.6,9339.7-1704.7z"/>
		<path id="XMLID_948_" class="st4" d="M9626.6-1796.4l-5.8,30.6c-5.4-1.4-9.2-2-15.6-2c-22.4,0-35.3,16-42.8,50.3v102.3h-31.3
			v-179.1h26.9l3.1,36.4c9.5-26.8,26.2-40.4,47.9-40.4C9614.7-1798.5,9621.2-1797.8,9626.6-1796.4z"/>
		<path id="XMLID_950_" class="st4" d="M9713.3-1859c0,11.9-8.8,21.1-22.1,21.1c-12.9,0-21.8-9.2-21.8-21.1
			c0-12.2,8.8-21.4,21.8-21.4C9704.5-1880.4,9713.3-1871.2,9713.3-1859z M9707.2-1615.3h-31.3v-179.1h31.3V-1615.3z"/>
		<path id="XMLID_953_" class="st4" d="M9921-1632.9l-7.1,21.8c-18-2-29.6-9.2-35-26.9c-12.6,18.7-31.6,26.9-53.4,26.9
			c-35.7,0-57.1-22.1-57.1-54c0-38.4,28.9-59.2,78.9-59.2h27.5v-13.3c0-25.8-12.6-35.3-37.4-35.3c-13.3,0-29.9,3.4-48.3,9.5
			l-7.8-22.8c22.1-8.2,41.8-12.2,61.9-12.2c43.2,0,62.9,22.1,62.9,59.5v81.9C9906.1-1641.4,9911.8-1636.3,9921-1632.9z
			 M9874.8-1662.5v-41.1h-23.5c-33,0-49.6,12.2-49.6,36.7c0,21.1,10.5,32.3,30.9,32.3C9851-1634.6,9864.6-1643.8,9874.8-1662.5z"/>
		<path id="XMLID_956_" class="st4" d="M10121.6-1615.3h-32.3v-234.2h32.3V-1615.3z"/>
		<path id="XMLID_958_" class="st4" d="M10337.8-1743.8v128.5h-31.3v-124.1c0-26.8-10.9-34.7-28.2-34.7c-20.1,0-33.7,12.6-45.6,31.6
			v127.1h-31.3v-179.1h26.9l2.7,26.5c12.2-18.4,31.3-30.6,54.7-30.6C10318.8-1798.5,10337.8-1777.8,10337.8-1743.8z"/>
		<path id="XMLID_960_" class="st4" d="M10504.7-1623.4c-11.9,8.2-24.8,12.2-40.1,12.2c-30.3,0-48.3-17.7-48.3-51v-108.1h-31.3
			v-24.1h31.3v-40.4l31.3-3.7v44.2h42.5l-3.4,24.1h-39.1v106.7c0,18,5.8,26.5,21.4,26.5c7.8,0,15-2.4,23.8-7.8L10504.7-1623.4z"/>
		<path id="XMLID_962_" class="st4" d="M10685.3-1694.1H10571c3.1,41.5,22.4,57.4,48.3,57.4c17.7,0,30.9-4.8,46.6-15.6l13.6,18.7
			c-17.7,13.9-37.7,22.4-62.5,22.4c-50,0-79.2-35-79.2-91.8c0-55.7,28.2-95.5,74.4-95.5c48.3,0,73.8,33.7,73.8,88.4
			C10685.9-1704,10685.6-1698.2,10685.3-1694.1z M10655-1719.3c0-35-13.9-54.4-42.1-54.4c-23.8,0-39.4,16.7-41.8,56.4h84V-1719.3z"
			/>
		<path id="XMLID_965_" class="st4" d="M10895.7-1786.2c-15,4.8-32,5.4-52.4,5.4c21.1,9.5,31.6,24.5,31.6,45.2
			c0,35.4-25.5,60.8-68.3,60.8c-8.2,0-15.3-1-22.8-3.4c-5.1,3.7-8.8,10.2-8.8,16.7c0,8.2,5.1,14.6,23.5,14.6h28.6
			c36.7,0,61.2,21.1,61.2,49.6c0,34.7-28.6,54.4-84,54.4c-58.5,0-76.8-18-76.8-54.4h28.2c0,20.4,9.2,29.9,48.6,29.9
			c38.8,0,52.4-9.9,52.4-27.9c0-17-13.6-25.5-36-25.5h-28.2c-32,0-46.2-16-46.2-34c0-11.6,6.8-23.1,19.7-31.6
			c-20.7-10.9-30.3-26.5-30.3-49.6c0-36.7,29.6-62.5,69-62.5c44.5,1,60.8-6.5,81.9-16L10895.7-1786.2z M10767.5-1735.9
			c0,23.8,13.3,40.4,37.7,40.4c24.5,0,37.7-15,37.7-40.8c0-26.2-12.9-39.8-38.4-39.8C10780.5-1776.1,10767.5-1759.4,10767.5-1735.9z
			"/>
		<path id="XMLID_968_" class="st4" d="M11037.1-1796.4l-5.8,30.6c-5.4-1.4-9.2-2-15.6-2c-22.4,0-35.3,16-42.8,50.3v102.3h-31.3
			v-179.1h26.9l3.1,36.4c9.5-26.8,26.2-40.4,47.9-40.4C11025.2-1798.5,11031.7-1797.8,11037.1-1796.4z"/>
		<path id="XMLID_970_" class="st4" d="M11222.1-1632.9l-7.1,21.8c-18-2-29.6-9.2-35-26.9c-12.6,18.7-31.6,26.9-53.4,26.9
			c-35.7,0-57.1-22.1-57.1-54c0-38.4,28.9-59.2,78.9-59.2h27.5v-13.3c0-25.8-12.6-35.3-37.4-35.3c-13.3,0-29.9,3.4-48.3,9.5
			l-7.8-22.8c22.1-8.2,41.8-12.2,61.9-12.2c43.2,0,62.9,22.1,62.9,59.5v81.9C11207.1-1641.4,11212.9-1636.3,11222.1-1632.9z
			 M11175.8-1662.5v-41.1h-23.5c-33,0-49.6,12.2-49.6,36.7c0,21.1,10.5,32.3,30.9,32.3C11152-1634.6,11165.6-1643.8,11175.8-1662.5z
			"/>
		<path id="XMLID_973_" class="st4" d="M11423.7-1866.5v251.2h-27.5l-3.1-24.8c-11.6,18-29.6,28.9-51.7,28.9
			c-43.5,0-67.6-37.1-67.6-92.8c0-54.7,26.5-94.5,70.4-94.5c21.1,0,36.4,9.5,48.3,22.1v-93.8L11423.7-1866.5z M11392.4-1662.5v-87.7
			c-11.2-14.3-23.8-23.4-41.5-23.4c-26.9,0-43.5,22.4-43.5,69c0,47.3,15,68.7,40.8,68.7C11368.2-1636,11380.5-1645.9,11392.4-1662.5
			z"/>
		<path id="XMLID_976_" class="st4" d="M11637.5-1632.9l-7.1,21.8c-18-2-29.6-9.2-35-26.9c-12.6,18.7-31.6,26.9-53.4,26.9
			c-35.7,0-57.1-22.1-57.1-54c0-38.4,28.9-59.2,78.9-59.2h27.5v-13.3c0-25.8-12.6-35.3-37.4-35.3c-13.3,0-29.9,3.4-48.3,9.5
			l-7.8-22.8c22.1-8.2,41.8-12.2,61.9-12.2c43.2,0,62.9,22.1,62.9,59.5v81.9C11622.5-1641.4,11628.3-1636.3,11637.5-1632.9z
			 M11591.3-1662.5v-41.1h-23.5c-33,0-49.6,12.2-49.6,36.7c0,21.1,10.5,32.3,30.9,32.3
			C11567.5-1634.6,11581.1-1643.8,11591.3-1662.5z"/>
	</g>
	<g id="XMLID_1321_">
		<g id="XMLID_1371_">
			<path id="XMLID_1389_" class="st4" d="M8044.8,1042.2h185.8c108.5,0,174.1,64.3,174.1,157.2v1.3c0,105.2-81.9,159.8-183.8,159.8
				h-76V1497h-100V1042.2z M8224.1,1271.5c50,0,79.3-29.9,79.3-68.9v-1.3c0-44.8-31.2-68.9-81.2-68.9h-77.3v139H8224.1z"/>
			<path id="XMLID_1386_" class="st4" d="M8487.6,1042.2h207.9c57.8,0,102.6,16.2,132.5,46.1c25.3,25.3,39,61.1,39,103.9v1.3
				c0,73.4-39.6,119.5-97.4,141l111.1,162.4h-116.9l-97.4-145.5h-1.3h-77.3V1497h-100V1042.2z M8689,1263.1
				c48.7,0,76.7-26,76.7-64.3v-1.3c0-42.9-29.9-65-78.6-65h-99.4v130.6H8689z"/>
			<path id="XMLID_1383_" class="st4" d="M8949.7,1270.9v-1.3c0-129.3,102-235.2,242.3-235.2c140.3,0,241,104.6,241,233.9v1.3
				c0,129.3-102,235.2-242.3,235.2C9050.4,1504.7,8949.7,1400.2,8949.7,1270.9z M9328.5,1270.9v-1.3c0-78-57.2-142.9-137.7-142.9
				c-80.6,0-136.4,63.7-136.4,141.6v1.3c0,78,57.2,142.9,137.7,142.9C9272.6,1412.5,9328.5,1348.8,9328.5,1270.9z"/>
			<path id="XMLID_1381_" class="st4" d="M9466.5,1435.2l63-70.2c26,28.6,51.3,45.5,83.2,45.5c37.7,0,61.1-22.7,61.1-75.4v-293
				h102.6v297.5c0,53.9-15.6,94.2-42.9,121.5c-27.9,27.9-68.9,42.2-118.2,42.2C9544.5,1503.4,9497.7,1472.3,9466.5,1435.2z"/>
			<path id="XMLID_1379_" class="st4" d="M9875.8,1042.2h344.2v89h-244.8v92.2h228.1v89h-228.1v95.5h244.8v89h-344.2V1042.2z"/>
			<path id="XMLID_1377_" class="st4" d="M10441.5,1134.5h-138.4v-92.2h376.8v92.2h-138.4V1497h-100V1134.5z"/>
			<path id="XMLID_1374_" class="st4" d="M10728.9,1270.9v-1.3c0-129.3,102-235.2,242.3-235.2c140.3,0,241,104.6,241,233.9v1.3
				c0,129.3-102,235.2-242.3,235.2C10829.6,1504.7,10728.9,1400.2,10728.9,1270.9z M11107.6,1270.9v-1.3
				c0-78-57.2-142.9-137.7-142.9c-80.6,0-136.4,63.7-136.4,141.6v1.3c0,78,57.2,142.9,137.7,142.9
				C11051.8,1412.5,11107.6,1348.8,11107.6,1270.9z"/>
			<path id="XMLID_1372_" class="st4" d="M11277.6,1430.7l59.1-70.8c40.9,33.8,83.8,55.2,135.8,55.2c40.9,0,65.6-16.2,65.6-42.9
				v-1.3c0-25.3-15.6-38.3-91.6-57.8c-91.6-23.4-150.7-48.7-150.7-139v-1.3c0-82.5,66.3-137.1,159.2-137.1
				c66.3,0,122.8,20.8,168.9,57.8l-52,75.4c-40.3-27.9-79.9-44.8-118.2-44.8c-38.3,0-58.5,17.5-58.5,39.6v1.3
				c0,29.9,19.5,39.6,98.1,59.8c92.2,24,144.2,57.2,144.2,136.4v1.3c0,90.3-68.9,141-167,141
				C11401.7,1503.4,11332.2,1479.4,11277.6,1430.7z"/>
		</g>
		<path id="XMLID_1369_" class="st4" d="M8205.2,1619.5l-17.7,20.7c-14.6-11.9-28.9-17.3-45.2-17.3c-35.4,0-64.9,23.8-64.9,94.5
			c0,67.6,28.2,94.2,64.6,94.2c22.1,0,36.4-9.9,49.6-19.7l16.3,20.7c-12.6,13.3-35.4,26.2-67,26.2c-56.8,0-97.9-42.5-97.9-121.4
			c0-79.2,44.2-121,97.2-121C8169.9,1596.4,8186.5,1604.6,8205.2,1619.5z"/>
		<path id="XMLID_1366_" class="st4" d="M8407.5,1744.9c0,55.4-29.2,93.8-79.9,93.8c-51,0-79.9-36.7-79.9-93.5
			c0-55.4,29.2-93.8,80.2-93.8C8379,1651.5,8407.5,1688.2,8407.5,1744.9z M8281.4,1745.3c0,46.6,16.3,68.3,46.2,68.3
			c29.9,0,46.2-21.8,46.2-68.7c0-46.6-16.3-68.3-45.9-68.3C8298.1,1676.6,8281.4,1698.4,8281.4,1745.3z"/>
		<path id="XMLID_1364_" class="st4" d="M8609.1,1706.2v128.5h-31.3v-124.1c0-26.8-10.9-34.7-28.2-34.7c-20.1,0-33.7,12.6-45.6,31.6
			v127.1h-31.3v-179.1h26.9l2.7,26.5c12.2-18.4,31.3-30.6,54.7-30.6C8590.1,1651.5,8609.1,1672.2,8609.1,1706.2z"/>
		<path id="XMLID_1362_" class="st4" d="M8795.1,1671.9l-13.3,19.7c-16-10.2-29.9-15.3-46.6-15.3c-20.4,0-33,9.2-33,23.4
			c0,14.6,9.5,21.4,38.4,28.9c37.7,9.5,59.5,24.5,59.5,55.7c0,37.4-34.3,54.4-70.7,54.4c-30.3,0-52-9.9-67.6-23.5l16.7-19
			c14.3,10.9,30.9,17.3,50.3,17.3c23.5,0,38.4-10.2,38.4-27.2c0-17.7-8.8-24.5-43.5-33.6c-38.8-10.2-54-26.9-54-52
			c0-28.6,27.5-49.3,64.6-49.3C8759.4,1651.5,8778.1,1658.9,8795.1,1671.9z"/>
		<path id="XMLID_1360_" class="st4" d="M8991.2,1834.7h-26.9l-2.4-27.9c-13.6,21.8-30.3,32-55.7,32c-31.3,0-50-19.7-50-54.7v-128.5
			h31.3v125.1c0,24.5,8.2,33.7,27.5,33.7c19.4,0,34-12.9,44.9-30.9v-127.8h31.3V1834.7z"/>
		<path id="XMLID_1358_" class="st4" d="M9067.7,1799.3v-215.8l31.3-3.7v218.9c0,9.5,3.1,14.3,11.2,14.3c4.4,0,8.2-0.7,11.6-2
			l8.2,21.8c-6.8,3.7-15.6,6.1-24.8,6.1C9082.4,1838.8,9067.7,1824.8,9067.7,1799.3z"/>
		<path id="XMLID_1356_" class="st4" d="M9273.1,1826.5c-11.9,8.2-24.8,12.2-40.1,12.2c-30.3,0-48.3-17.7-48.3-51v-108.1h-31.3
			v-24.1h31.3v-40.4l31.3-3.7v44.2h42.5l-3.4,24.1H9216v106.7c0,18,5.8,26.5,21.4,26.5c7.8,0,15-2.4,23.8-7.8L9273.1,1826.5z"/>
		<path id="XMLID_1353_" class="st4" d="M9465.8,1744.9c0,55.4-29.2,93.8-79.9,93.8c-51,0-79.9-36.7-79.9-93.5
			c0-55.4,29.2-93.8,80.2-93.8C9437.3,1651.5,9465.8,1688.2,9465.8,1744.9z M9339.7,1745.3c0,46.6,16.3,68.3,46.2,68.3
			c29.9,0,46.2-21.8,46.2-68.7c0-46.6-16.3-68.3-45.9-68.3C9356.4,1676.6,9339.7,1698.4,9339.7,1745.3z"/>
		<path id="XMLID_1351_" class="st4" d="M9626.6,1653.5l-5.8,30.6c-5.4-1.4-9.2-2-15.6-2c-22.4,0-35.3,16-42.8,50.3v102.3h-31.3
			v-179.1h26.9l3.1,36.4c9.5-26.8,26.2-40.4,47.9-40.4C9614.7,1651.5,9621.2,1652.1,9626.6,1653.5z"/>
		<path id="XMLID_1348_" class="st4" d="M9713.3,1591c0,11.9-8.8,21.1-22.1,21.1c-12.9,0-21.8-9.2-21.8-21.1
			c0-12.2,8.8-21.4,21.8-21.4C9704.5,1569.5,9713.3,1578.7,9713.3,1591z M9707.2,1834.7h-31.3v-179.1h31.3V1834.7z"/>
		<path id="XMLID_1345_" class="st4" d="M9921,1817l-7.1,21.8c-18-2-29.6-9.2-35-26.9c-12.6,18.7-31.6,26.9-53.4,26.9
			c-35.7,0-57.1-22.1-57.1-54c0-38.4,28.9-59.2,78.9-59.2h27.5v-13.3c0-25.8-12.6-35.3-37.4-35.3c-13.3,0-29.9,3.4-48.3,9.5
			l-7.8-22.8c22.1-8.2,41.8-12.2,61.9-12.2c43.2,0,62.9,22.1,62.9,59.5v81.9C9906.1,1808.5,9911.8,1813.6,9921,1817z M9874.8,1787.4
			v-41.1h-23.5c-33,0-49.6,12.2-49.6,36.7c0,21.1,10.5,32.3,30.9,32.3C9851,1815.3,9864.6,1806.1,9874.8,1787.4z"/>
		<path id="XMLID_1343_" class="st4" d="M10121.6,1834.7h-32.3v-234.2h32.3V1834.7z"/>
		<path id="XMLID_1341_" class="st4" d="M10337.8,1706.2v128.5h-31.3v-124.1c0-26.8-10.9-34.7-28.2-34.7
			c-20.1,0-33.7,12.6-45.6,31.6v127.1h-31.3v-179.1h26.9l2.7,26.5c12.2-18.4,31.3-30.6,54.7-30.6
			C10318.8,1651.5,10337.8,1672.2,10337.8,1706.2z"/>
		<path id="XMLID_1339_" class="st4" d="M10504.7,1826.5c-11.9,8.2-24.8,12.2-40.1,12.2c-30.3,0-48.3-17.7-48.3-51v-108.1h-31.3
			v-24.1h31.3v-40.4l31.3-3.7v44.2h42.5l-3.4,24.1h-39.1v106.7c0,18,5.8,26.5,21.4,26.5c7.8,0,15-2.4,23.8-7.8L10504.7,1826.5z"/>
		<path id="XMLID_1336_" class="st4" d="M10685.3,1755.8H10571c3.1,41.5,22.4,57.4,48.3,57.4c17.7,0,30.9-4.8,46.6-15.6l13.6,18.7
			c-17.7,13.9-37.7,22.4-62.5,22.4c-50,0-79.2-35-79.2-91.8c0-55.7,28.2-95.5,74.4-95.5c48.3,0,73.8,33.7,73.8,88.4
			C10685.9,1746,10685.6,1751.7,10685.3,1755.8z M10655,1730.7c0-35-13.9-54.4-42.1-54.4c-23.8,0-39.4,16.7-41.8,56.4h84V1730.7z"/>
		<path id="XMLID_1333_" class="st4" d="M10895.7,1663.7c-15,4.8-32,5.4-52.4,5.4c21.1,9.5,31.6,24.5,31.6,45.2
			c0,35.4-25.5,60.8-68.3,60.8c-8.2,0-15.3-1-22.8-3.4c-5.1,3.7-8.8,10.2-8.8,16.7c0,8.2,5.1,14.6,23.5,14.6h28.6
			c36.7,0,61.2,21.1,61.2,49.6c0,34.7-28.6,54.4-84,54.4c-58.5,0-76.8-18-76.8-54.4h28.2c0,20.4,9.2,29.9,48.6,29.9
			c38.8,0,52.4-9.9,52.4-27.9c0-17-13.6-25.5-36-25.5h-28.2c-32,0-46.2-16-46.2-34c0-11.6,6.8-23.1,19.7-31.6
			c-20.7-10.9-30.3-26.5-30.3-49.6c0-36.7,29.6-62.5,69-62.5c44.5,1,60.8-6.5,81.9-16L10895.7,1663.7z M10767.5,1714
			c0,23.8,13.3,40.4,37.7,40.4c24.5,0,37.7-15,37.7-40.8c0-26.2-12.9-39.8-38.4-39.8C10780.5,1673.9,10767.5,1690.6,10767.5,1714z"
			/>
		<path id="XMLID_1331_" class="st4" d="M11037.1,1653.5l-5.8,30.6c-5.4-1.4-9.2-2-15.6-2c-22.4,0-35.3,16-42.8,50.3v102.3h-31.3
			v-179.1h26.9l3.1,36.4c9.5-26.8,26.2-40.4,47.9-40.4C11025.2,1651.5,11031.7,1652.1,11037.1,1653.5z"/>
		<path id="XMLID_1328_" class="st4" d="M11222.1,1817l-7.1,21.8c-18-2-29.6-9.2-35-26.9c-12.6,18.7-31.6,26.9-53.4,26.9
			c-35.7,0-57.1-22.1-57.1-54c0-38.4,28.9-59.2,78.9-59.2h27.5v-13.3c0-25.8-12.6-35.3-37.4-35.3c-13.3,0-29.9,3.4-48.3,9.5
			l-7.8-22.8c22.1-8.2,41.8-12.2,61.9-12.2c43.2,0,62.9,22.1,62.9,59.5v81.9C11207.1,1808.5,11212.9,1813.6,11222.1,1817z
			 M11175.8,1787.4v-41.1h-23.5c-33,0-49.6,12.2-49.6,36.7c0,21.1,10.5,32.3,30.9,32.3C11152,1815.3,11165.6,1806.1,11175.8,1787.4z
			"/>
		<path id="XMLID_1325_" class="st4" d="M11423.7,1583.5v251.2h-27.5l-3.1-24.8c-11.6,18-29.6,28.9-51.7,28.9
			c-43.5,0-67.6-37.1-67.6-92.8c0-54.7,26.5-94.5,70.4-94.5c21.1,0,36.4,9.5,48.3,22.1v-93.8L11423.7,1583.5z M11392.4,1787.4v-87.7
			c-11.2-14.3-23.8-23.4-41.5-23.4c-26.9,0-43.5,22.4-43.5,69c0,47.3,15,68.7,40.8,68.7
			C11368.2,1813.9,11380.5,1804.1,11392.4,1787.4z"/>
		<path id="XMLID_1322_" class="st4" d="M11637.5,1817l-7.1,21.8c-18-2-29.6-9.2-35-26.9c-12.6,18.7-31.6,26.9-53.4,26.9
			c-35.7,0-57.1-22.1-57.1-54c0-38.4,28.9-59.2,78.9-59.2h27.5v-13.3c0-25.8-12.6-35.3-37.4-35.3c-13.3,0-29.9,3.4-48.3,9.5
			l-7.8-22.8c22.1-8.2,41.8-12.2,61.9-12.2c43.2,0,62.9,22.1,62.9,59.5v81.9C11622.5,1808.5,11628.3,1813.6,11637.5,1817z
			 M11591.3,1787.4v-41.1h-23.5c-33,0-49.6,12.2-49.6,36.7c0,21.1,10.5,32.3,30.9,32.3
			C11567.5,1815.3,11581.1,1806.1,11591.3,1787.4z"/>
	</g>
	<g id="XMLID_1495_">
		<rect id="XMLID_1496_" x="1671.6" y="1291.3" width="37.1" height="5.5"/>
	</g>
	<path id="XMLID_1494_" class="st2" d="M2990.4,1385c1.4-17.3,2.1-34.7,2.1-52.4c0-16.1-0.6-32.1-1.8-47.9
		c0.9,15.6,1.3,31.3,1.3,47.1C2992.1,1349.7,2991.5,1367.4,2990.4,1385z"/>
	<path id="XMLID_1492_" class="st2" d="M1506,1279.6c-1.4,17.3-2.1,34.7-2.1,52.3c0,16.1,0.6,32,1.8,47.8
		c-0.9-15.6-1.3-31.3-1.3-47.1C1504.3,1314.8,1504.9,1297.1,1506,1279.6z"/>
	<g id="XMLID_1419_">
		<g id="XMLID_1470_">
			<path id="XMLID_1488_" class="st4" d="M793.3,2581.7h152.5c89,0,142.9,52.8,142.9,129v1.1c0,86.4-67.2,131.1-150.9,131.1h-62.4
				v112h-82.1V2581.7z M940.4,2769.9c41,0,65-24.5,65-56.5v-1.1c0-36.8-25.6-56.5-66.6-56.5h-63.4v114.1H940.4z"/>
			<path id="XMLID_1485_" class="st4" d="M1156.7,2581.7h170.6c47.4,0,84.2,13.3,108.8,37.9c20.8,20.8,32,50.1,32,85.3v1.1
				c0,60.2-32.5,98.1-80,115.7l91.2,133.3h-96l-80-119.4h-1.1h-63.4v119.4h-82.1V2581.7z M1321.9,2763c40,0,62.9-21.3,62.9-52.8
				v-1.1c0-35.2-24.5-53.3-64.5-53.3h-81.6V2763H1321.9z"/>
			<path id="XMLID_1482_" class="st4" d="M1535.9,2769.4v-1.1c0-106.1,83.7-193,198.8-193c115.2,0,197.8,85.8,197.8,191.9v1.1
				c0,106.1-83.7,193-198.8,193C1618.5,2961.3,1535.9,2875.5,1535.9,2769.4z M1846.7,2769.4v-1.1c0-64-46.9-117.3-113-117.3
				c-66.1,0-112,52.2-112,116.2v1.1c0,64,46.9,117.3,113,117.3S1846.7,2833.4,1846.7,2769.4z"/>
			<path id="XMLID_1480_" class="st4" d="M1960,2904.3l51.7-57.6c21.3,23.5,42.1,37.3,68.2,37.3c30.9,0,50.1-18.7,50.1-61.8v-240.4
				h84.2v244.2c0,44.2-12.8,77.3-35.2,99.7c-22.9,22.9-56.5,34.7-97,34.7C2023.9,2960.2,1985.6,2934.6,1960,2904.3z"/>
			<path id="XMLID_1478_" class="st4" d="M2295.9,2581.7h282.5v73h-200.9v75.7h187.2v73h-187.2v78.4h200.9v73h-282.5V2581.7z"/>
			<path id="XMLID_1476_" class="st4" d="M2760.1,2657.4h-113.6v-75.7h309.2v75.7h-113.6v297.5h-82.1V2657.4z"/>
			<path id="XMLID_1473_" class="st4" d="M2995.9,2769.4v-1.1c0-106.1,83.7-193,198.8-193c115.2,0,197.8,85.8,197.8,191.9v1.1
				c0,106.1-83.7,193-198.8,193C3078.6,2961.3,2995.9,2875.5,2995.9,2769.4z M3306.7,2769.4v-1.1c0-64-46.9-117.3-113-117.3
				c-66.1,0-112,52.2-112,116.2v1.1c0,64,46.9,117.3,113,117.3S3306.7,2833.4,3306.7,2769.4z"/>
			<path id="XMLID_1471_" class="st4" d="M3446.2,2900.5l48.5-58.1c33.6,27.7,68.8,45.3,111.4,45.3c33.6,0,53.8-13.3,53.8-35.2v-1.1
				c0-20.8-12.8-31.5-75.2-47.4c-75.2-19.2-123.7-40-123.7-114.1v-1.1c0-67.7,54.4-112.5,130.6-112.5c54.4,0,100.8,17.1,138.6,47.4
				l-42.6,61.8c-33.1-22.9-65.6-36.8-97-36.8c-31.5,0-48,14.4-48,32.5v1.1c0,24.5,16,32.5,80.5,49c75.7,19.7,118.3,46.9,118.3,111.9
				v1.1c0,74.1-56.5,115.7-137,115.7C3548,2960.2,3491,2940.5,3446.2,2900.5z"/>
		</g>
		<g id="XMLID_1420_">
			<path id="XMLID_1468_" class="st4" d="M1075.2,3051.1l-12.9,15.2c-10.7-8.7-21.2-12.7-33.1-12.7c-25.9,0-47.5,17.4-47.5,69.2
				c0,49.5,20.7,68.9,47.3,68.9c16.2,0,26.6-7.2,36.3-14.4l11.9,15.2c-9.2,9.7-25.9,19.2-49,19.2c-41.6,0-71.7-31.1-71.7-88.9
				c0-58,32.4-88.6,71.2-88.6C1049.3,3034.1,1061.5,3040.1,1075.2,3051.1z"/>
			<path id="XMLID_1465_" class="st4" d="M1223.3,3142.9c0,40.6-21.4,68.7-58.5,68.7c-37.3,0-58.5-26.9-58.5-68.4
				c0-40.6,21.4-68.7,58.7-68.7C1202.4,3074.5,1223.3,3101.3,1223.3,3142.9z M1131,3143.1c0,34.1,11.9,50,33.8,50
				c21.9,0,33.8-15.9,33.8-50.3c0-34.1-11.9-50-33.6-50C1143.2,3092.9,1131,3108.8,1131,3143.1z"/>
			<path id="XMLID_1463_" class="st4" d="M1370.9,3114.5v94.1H1348v-90.8c0-19.7-8-25.4-20.7-25.4c-14.7,0-24.6,9.2-33.4,23.1v93.1
				h-22.9v-131.2h19.7l2,19.4c9-13.4,22.9-22.4,40.1-22.4C1357,3074.5,1370.9,3089.6,1370.9,3114.5z"/>
			<path id="XMLID_1461_" class="st4" d="M1507.1,3089.4l-9.7,14.4c-11.7-7.5-21.9-11.2-34.1-11.2c-14.9,0-24.1,6.7-24.1,17.2
				c0,10.7,7,15.7,28.1,21.2c27.6,7,43.6,17.9,43.6,40.8c0,27.4-25.1,39.8-51.8,39.8c-22.1,0-38.1-7.2-49.5-17.2l12.2-13.9
				c10.5,8,22.6,12.7,36.8,12.7c17.2,0,28.1-7.5,28.1-19.9c0-12.9-6.5-17.9-31.9-24.6c-28.4-7.5-39.6-19.7-39.6-38.1
				c0-20.9,20.2-36.1,47.3-36.1C1480.9,3074.5,1494.6,3079.9,1507.1,3089.4z"/>
			<path id="XMLID_1459_" class="st4" d="M1650.7,3208.6H1631l-1.7-20.4c-10,15.9-22.1,23.4-40.8,23.4c-22.9,0-36.6-14.4-36.6-40.1
				v-94.1h22.9v91.6c0,17.9,6,24.6,20.2,24.6c14.2,0,24.9-9.5,32.8-22.6v-93.6h22.9V3208.6z"/>
			<path id="XMLID_1457_" class="st4" d="M1706.7,3182.7v-158l22.9-2.7v160.3c0,7,2.2,10.5,8.2,10.5c3.2,0,6-0.5,8.5-1.5l6,15.9
				c-5,2.7-11.4,4.5-18.2,4.5C1717.4,3211.6,1706.7,3201.4,1706.7,3182.7z"/>
			<path id="XMLID_1455_" class="st4" d="M1857,3202.6c-8.7,6-18.2,9-29.4,9c-22.2,0-35.3-12.9-35.3-37.3v-79.1h-22.9v-17.7h22.9
				v-29.6l22.9-2.7v32.3h31.1l-2.5,17.7h-28.6v78.1c0,13.2,4.2,19.4,15.7,19.4c5.7,0,10.9-1.7,17.4-5.7L1857,3202.6z"/>
			<path id="XMLID_1452_" class="st4" d="M1998.1,3142.9c0,40.6-21.4,68.7-58.5,68.7c-37.3,0-58.5-26.9-58.5-68.4
				c0-40.6,21.4-68.7,58.7-68.7C1977.2,3074.5,1998.1,3101.3,1998.1,3142.9z M1905.8,3143.1c0,34.1,11.9,50,33.8,50
				c21.9,0,33.8-15.9,33.8-50.3c0-34.1-11.9-50-33.6-50C1918,3092.9,1905.8,3108.8,1905.8,3143.1z"/>
			<path id="XMLID_1450_" class="st4" d="M2115.9,3075.9l-4.2,22.4c-4-1-6.7-1.5-11.5-1.5c-16.4,0-25.9,11.7-31.4,36.8v74.9h-22.9
				v-131.2h19.7l2.2,26.6c7-19.7,19.2-29.6,35.1-29.6C2107.2,3074.5,2111.9,3075,2115.9,3075.9z"/>
			<path id="XMLID_1447_" class="st4" d="M2179.4,3030.2c0,8.7-6.5,15.4-16.2,15.4c-9.5,0-15.9-6.7-15.9-15.4
				c0-9,6.5-15.7,15.9-15.7C2172.9,3014.5,2179.4,3021.2,2179.4,3030.2z M2174.9,3208.6H2152v-131.2h22.9V3208.6z"/>
			<path id="XMLID_1444_" class="st4" d="M2331.4,3195.7l-5.2,15.9c-13.2-1.5-21.7-6.7-25.6-19.7c-9.2,13.7-23.1,19.7-39.1,19.7
				c-26.1,0-41.8-16.2-41.8-39.6c0-28.1,21.2-43.3,57.7-43.3h20.2v-9.7c0-18.9-9.2-25.9-27.4-25.9c-9.7,0-21.9,2.5-35.3,7l-5.7-16.7
				c16.2-6,30.6-9,45.3-9c31.6,0,46,16.2,46,43.6v60C2320.5,3189.4,2324.7,3193.2,2331.4,3195.7z M2297.6,3174v-30.1h-17.2
				c-24.1,0-36.3,9-36.3,26.9c0,15.4,7.7,23.6,22.6,23.6C2280.2,3194.4,2290.1,3187.7,2297.6,3174z"/>
			<path id="XMLID_1442_" class="st4" d="M2478.3,3208.6h-23.6v-171.5h23.6V3208.6z"/>
			<path id="XMLID_1440_" class="st4" d="M2636.6,3114.5v94.1h-22.9v-90.8c0-19.7-8-25.4-20.7-25.4c-14.7,0-24.6,9.2-33.4,23.1v93.1
				h-22.9v-131.2h19.7l2,19.4c9-13.4,22.9-22.4,40.1-22.4C2622.6,3074.5,2636.6,3089.6,2636.6,3114.5z"/>
			<path id="XMLID_1438_" class="st4" d="M2758.8,3202.6c-8.7,6-18.2,9-29.4,9c-22.2,0-35.3-12.9-35.3-37.3v-79.1h-22.9v-17.7h22.9
				v-29.6l22.9-2.7v32.3h31.1l-2.5,17.7H2717v78.1c0,13.2,4.2,19.4,15.7,19.4c5.7,0,10.9-1.7,17.4-5.7L2758.8,3202.6z"/>
			<path id="XMLID_1435_" class="st4" d="M2891,3150.9h-83.6c2.2,30.4,16.4,42.1,35.3,42.1c12.9,0,22.6-3.5,34.1-11.5l10,13.7
				c-12.9,10.2-27.6,16.4-45.8,16.4c-36.6,0-58-25.6-58-67.2c0-40.8,20.7-69.9,54.5-69.9c35.3,0,54,24.6,54,64.7
				C2891.5,3143.6,2891.2,3147.9,2891,3150.9z M2868.8,3132.4c0-25.6-10.2-39.8-30.9-39.8c-17.4,0-28.9,12.2-30.6,41.3h61.5V3132.4z
				"/>
			<path id="XMLID_1432_" class="st4" d="M3045,3083.4c-11,3.5-23.4,4-38.3,4c15.4,7,23.1,17.9,23.1,33.1c0,25.9-18.7,44.5-50,44.5
				c-6,0-11.2-0.7-16.7-2.5c-3.7,2.7-6.5,7.5-6.5,12.2c0,6,3.7,10.7,17.2,10.7h20.9c26.9,0,44.8,15.4,44.8,36.3
				c0,25.4-20.9,39.8-61.5,39.8c-42.8,0-56.2-13.2-56.2-39.8h20.7c0,14.9,6.7,21.9,35.6,21.9c28.4,0,38.3-7.2,38.3-20.4
				c0-12.4-10-18.7-26.4-18.7h-20.7c-23.4,0-33.8-11.7-33.8-24.9c0-8.5,5-16.9,14.4-23.1c-15.2-8-22.1-19.4-22.1-36.3
				c0-26.9,21.7-45.8,50.5-45.8c32.6,0.7,44.5-4.7,60-11.7L3045,3083.4z M2951.2,3120.2c0,17.4,9.7,29.6,27.6,29.6
				c17.9,0,27.6-10.9,27.6-29.9c0-19.2-9.5-29.1-28.1-29.1C2960.7,3090.9,2951.2,3103.1,2951.2,3120.2z"/>
			<path id="XMLID_1430_" class="st4" d="M3148.6,3075.9l-4.2,22.4c-4-1-6.7-1.5-11.5-1.5c-16.4,0-25.9,11.7-31.4,36.8v74.9h-22.9
				v-131.2h19.7l2.2,26.6c7-19.7,19.2-29.6,35.1-29.6C3139.9,3074.5,3144.6,3075,3148.6,3075.9z"/>
			<path id="XMLID_1427_" class="st4" d="M3284,3195.7l-5.2,15.9c-13.2-1.5-21.7-6.7-25.6-19.7c-9.2,13.7-23.1,19.7-39.1,19.7
				c-26.1,0-41.8-16.2-41.8-39.6c0-28.1,21.2-43.3,57.7-43.3h20.2v-9.7c0-18.9-9.2-25.9-27.4-25.9c-9.7,0-21.9,2.5-35.3,7l-5.7-16.7
				c16.2-6,30.6-9,45.3-9c31.6,0,46,16.2,46,43.6v60C3273,3189.4,3277.3,3193.2,3284,3195.7z M3250.1,3174v-30.1H3233
				c-24.1,0-36.3,9-36.3,26.9c0,15.4,7.7,23.6,22.6,23.6C3232.7,3194.4,3242.7,3187.7,3250.1,3174z"/>
			<path id="XMLID_1424_" class="st4" d="M3431.6,3024.7v183.9h-20.2l-2.2-18.2c-8.5,13.2-21.7,21.2-37.8,21.2
				c-31.9,0-49.5-27.1-49.5-67.9c0-40.1,19.4-69.2,51.5-69.2c15.4,0,26.6,7,35.3,16.2v-68.7L3431.6,3024.7z M3408.7,3174v-64.2
				c-8.2-10.4-17.4-17.2-30.4-17.2c-19.7,0-31.9,16.4-31.9,50.5c0,34.6,10.9,50.3,29.9,50.3C3391,3193.4,3400,3186.2,3408.7,3174z"
				/>
			<path id="XMLID_1421_" class="st4" d="M3588.1,3195.7l-5.2,15.9c-13.2-1.5-21.7-6.7-25.6-19.7c-9.2,13.7-23.1,19.7-39.1,19.7
				c-26.1,0-41.8-16.2-41.8-39.6c0-28.1,21.2-43.3,57.7-43.3h20.2v-9.7c0-18.9-9.2-25.9-27.4-25.9c-9.7,0-21.9,2.5-35.3,7l-5.7-16.7
				c16.2-6,30.6-9,45.3-9c31.6,0,46,16.2,46,43.6v60C3577.2,3189.4,3581.4,3193.2,3588.1,3195.7z M3554.3,3174v-30.1h-17.2
				c-24.1,0-36.3,9-36.3,26.9c0,15.4,7.7,23.6,22.6,23.6C3536.9,3194.4,3546.8,3187.7,3554.3,3174z"/>
		</g>
	</g>
	<rect id="XMLID_1418_" x="-15.2" y="-3.2" class="st5" width="4545.4" height="3817.2"/>
	<rect id="XMLID_876_" x="-15.2" y="-8496" class="st5" width="4545.4" height="3817.2"/>
	<path id="XMLID_1138_" class="st6" d="M2990.8-7122.5c-22.5-409.9-337.4-741.9-739.6-791.3c-34-4.2-68.7-6.3-103.8-6.3
		c-466.5,0-844.7,378.2-844.7,844.7c0,466.5,378.2,844.7,844.7,844.7c33.1,0,65.7-1.9,97.8-5.6c-402.2-49.3-717-381.4-739.6-791.3
		c-1.2-15.8-1.8-31.7-1.8-47.8c0-17.6,0.7-35.1,2.1-52.3c26.6-330.9,303.6-591.2,641.4-591.2c35.1,0,69.5,2.8,103.1,8.2
		c306.4,49.3,540.4,315,540.4,635.3c0,321.9-236.3,588.6-544.9,636c33.6,5.4,68,8.2,103.1,8.2c337.8,0,614.8-260.2,641.4-591.1
		c1.1-17.6,1.6-35.3,1.6-53.1C2992.1-7091.1,2991.6-7106.9,2990.8-7122.5z"/>
	<g id="XMLID_1136_">
		<rect id="XMLID_1137_" x="1671.6" y="-7222.8" width="37.1" height="5.5"/>
	</g>
	<path id="XMLID_1133_" class="st2" d="M1506-7234.5c-1.4,17.3-2.1,34.7-2.1,52.3c0,16.1,0.6,32,1.8,47.8
		c-0.9-15.6-1.3-31.3-1.3-47.1C1504.3-7199.2,1504.9-7216.9,1506-7234.5z"/>
	<path id="XMLID_1132_" class="st7" d="M2386.5-7913.7c-33.1,0-65.7,1.9-97.8,5.6c402.2,49.3,717,381.3,739.6,791.3
		c1.2,15.8,1.8,31.8,1.8,47.9c0,17.6-0.7,35.1-2.1,52.4c-26.6,330.9-303.6,591.1-641.4,591.1c-35.1,0-69.5-2.8-103.1-8.2
		c-306.4-49.3-540.4-315-540.4-635.3c0-321.9,236.3-587,544.9-634.4c-33.6-5.4-68-9.8-103.1-9.8c-337.8,0-614.8,260.2-641.4,591.2
		c-1.1,17.5-1.6,35.2-1.6,53.1c0,15.8,0.4,31.5,1.3,47.1c22.5,409.9,337.3,742,739.6,791.3c34,4.2,68.7,6.3,103.8,6.3
		c466.5,0,844.7-378.2,844.7-844.7C3231.2-7535.5,2853-7913.7,2386.5-7913.7z"/>
	<g id="XMLID_1060_">
		<g id="XMLID_1111_">
			<path id="XMLID_1129_" class="st8" d="M793.3-5932.3h152.5c89,0,142.9,52.8,142.9,129v1.1c0,86.4-67.2,131.1-150.9,131.1h-62.4
				v112h-82.1V-5932.3z M940.4-5744.1c41,0,65-24.5,65-56.5v-1.1c0-36.8-25.6-56.5-66.6-56.5h-63.4v114.1H940.4z"/>
			<path id="XMLID_1126_" class="st8" d="M1156.7-5932.3h170.6c47.4,0,84.2,13.3,108.8,37.9c20.8,20.8,32,50.1,32,85.3v1.1
				c0,60.2-32.5,98.1-80,115.7l91.2,133.3h-96l-80-119.4h-1.1h-63.4v119.4h-82.1V-5932.3z M1321.9-5751c40,0,62.9-21.3,62.9-52.8
				v-1.1c0-35.2-24.5-53.3-64.5-53.3h-81.6v107.2H1321.9z"/>
			<path id="XMLID_1123_" class="st8" d="M1535.9-5744.6v-1.1c0-106.1,83.7-193,198.8-193c115.2,0,197.8,85.8,197.8,191.9v1.1
				c0,106.1-83.7,193-198.8,193C1618.5-5552.7,1535.9-5638.6,1535.9-5744.6z M1846.7-5744.6v-1.1c0-64-46.9-117.3-113-117.3
				c-66.1,0-112,52.2-112,116.2v1.1c0,64,46.9,117.3,113,117.3S1846.7-5680.7,1846.7-5744.6z"/>
			<path id="XMLID_1121_" class="st8" d="M1960-5609.8l51.7-57.6c21.3,23.5,42.1,37.3,68.2,37.3c30.9,0,50.1-18.7,50.1-61.8v-240.4
				h84.2v244.2c0,44.2-12.8,77.3-35.2,99.7c-22.9,22.9-56.5,34.7-97,34.7C2023.9-5553.8,1985.6-5579.4,1960-5609.8z"/>
			<path id="XMLID_1119_" class="st8" d="M2295.9-5932.3h282.5v73h-200.9v75.7h187.2v73h-187.2v78.4h200.9v73h-282.5V-5932.3z"/>
			<path id="XMLID_1117_" class="st8" d="M2760.1-5856.6h-113.6v-75.7h309.2v75.7h-113.6v297.5h-82.1V-5856.6z"/>
			<path id="XMLID_1114_" class="st8" d="M2995.9-5744.6v-1.1c0-106.1,83.7-193,198.8-193c115.2,0,197.8,85.8,197.8,191.9v1.1
				c0,106.1-83.7,193-198.8,193C3078.6-5552.7,2995.9-5638.6,2995.9-5744.6z M3306.7-5744.6v-1.1c0-64-46.9-117.3-113-117.3
				c-66.1,0-112,52.2-112,116.2v1.1c0,64,46.9,117.3,113,117.3S3306.7-5680.7,3306.7-5744.6z"/>
			<path id="XMLID_1112_" class="st8" d="M3446.2-5613.5l48.5-58.1c33.6,27.7,68.8,45.3,111.4,45.3c33.6,0,53.8-13.3,53.8-35.2v-1.1
				c0-20.8-12.8-31.5-75.2-47.4c-75.2-19.2-123.7-40-123.7-114.1v-1.1c0-67.7,54.4-112.5,130.6-112.5c54.4,0,100.8,17.1,138.6,47.4
				l-42.6,61.8c-33.1-22.9-65.6-36.8-97-36.8c-31.5,0-48,14.4-48,32.5v1.1c0,24.5,16,32.5,80.5,49c75.7,19.7,118.3,46.9,118.3,111.9
				v1.1c0,74.1-56.5,115.7-137,115.7C3548-5553.8,3491-5573.5,3446.2-5613.5z"/>
		</g>
		<g id="XMLID_1061_">
			<path id="XMLID_1109_" class="st8" d="M1075.2-5463l-12.9,15.2c-10.7-8.7-21.2-12.7-33.1-12.7c-25.9,0-47.5,17.4-47.5,69.2
				c0,49.5,20.7,68.9,47.3,68.9c16.2,0,26.6-7.2,36.3-14.4l11.9,15.2c-9.2,9.7-25.9,19.2-49,19.2c-41.6,0-71.7-31.1-71.7-88.8
				c0-58,32.4-88.6,71.2-88.6C1049.3-5479.9,1061.5-5473.9,1075.2-5463z"/>
			<path id="XMLID_1106_" class="st8" d="M1223.3-5371.1c0,40.6-21.4,68.7-58.5,68.7c-37.3,0-58.5-26.9-58.5-68.4
				c0-40.6,21.4-68.7,58.7-68.7C1202.4-5439.6,1223.3-5412.7,1223.3-5371.1z M1131-5370.9c0,34.1,11.9,50,33.8,50
				c21.9,0,33.8-15.9,33.8-50.3c0-34.1-11.9-50-33.6-50C1143.2-5421.2,1131-5405.2,1131-5370.9z"/>
			<path id="XMLID_1104_" class="st8" d="M1370.9-5399.5v94.1H1348v-90.8c0-19.7-8-25.4-20.7-25.4c-14.7,0-24.6,9.2-33.4,23.1v93.1
				h-22.9v-131.2h19.7l2,19.4c9-13.4,22.9-22.4,40.1-22.4C1357-5439.6,1370.9-5424.4,1370.9-5399.5z"/>
			<path id="XMLID_1102_" class="st8" d="M1507.1-5424.6l-9.7,14.4c-11.7-7.5-21.9-11.2-34.1-11.2c-14.9,0-24.1,6.7-24.1,17.2
				c0,10.7,7,15.7,28.1,21.2c27.6,7,43.6,17.9,43.6,40.8c0,27.4-25.1,39.8-51.8,39.8c-22.1,0-38.1-7.2-49.5-17.2l12.2-13.9
				c10.5,8,22.6,12.7,36.8,12.7c17.2,0,28.1-7.5,28.1-19.9c0-12.9-6.5-17.9-31.9-24.6c-28.4-7.5-39.6-19.7-39.6-38.1
				c0-20.9,20.2-36.1,47.3-36.1C1480.9-5439.6,1494.6-5434.1,1507.1-5424.6z"/>
			<path id="XMLID_1100_" class="st8" d="M1650.7-5305.4H1631l-1.7-20.4c-10,15.9-22.1,23.4-40.8,23.4c-22.9,0-36.6-14.4-36.6-40.1
				v-94.1h22.9v91.6c0,17.9,6,24.6,20.2,24.6c14.2,0,24.9-9.5,32.8-22.6v-93.6h22.9V-5305.4z"/>
			<path id="XMLID_1098_" class="st8" d="M1706.7-5331.3v-158l22.9-2.7v160.3c0,7,2.2,10.5,8.2,10.5c3.2,0,6-0.5,8.5-1.5l6,15.9
				c-5,2.7-11.4,4.5-18.2,4.5C1717.4-5302.4,1706.7-5312.7,1706.7-5331.3z"/>
			<path id="XMLID_1096_" class="st8" d="M1857-5311.4c-8.7,6-18.2,9-29.4,9c-22.2,0-35.3-12.9-35.3-37.3v-79.1h-22.9v-17.7h22.9
				v-29.6l22.9-2.7v32.3h31.1l-2.5,17.7h-28.6v78.1c0,13.2,4.2,19.4,15.7,19.4c5.7,0,10.9-1.7,17.4-5.7L1857-5311.4z"/>
			<path id="XMLID_1093_" class="st8" d="M1998.1-5371.1c0,40.6-21.4,68.7-58.5,68.7c-37.3,0-58.5-26.9-58.5-68.4
				c0-40.6,21.4-68.7,58.7-68.7C1977.2-5439.6,1998.1-5412.7,1998.1-5371.1z M1905.8-5370.9c0,34.1,11.9,50,33.8,50
				c21.9,0,33.8-15.9,33.8-50.3c0-34.1-11.9-50-33.6-50C1918-5421.2,1905.8-5405.2,1905.8-5370.9z"/>
			<path id="XMLID_1091_" class="st8" d="M2115.9-5438.1l-4.2,22.4c-4-1-6.7-1.5-11.5-1.5c-16.4,0-25.9,11.7-31.4,36.8v74.9h-22.9
				v-131.2h19.7l2.2,26.6c7-19.7,19.2-29.6,35.1-29.6C2107.2-5439.6,2111.9-5439.1,2115.9-5438.1z"/>
			<path id="XMLID_1088_" class="st8" d="M2179.4-5483.9c0,8.7-6.5,15.4-16.2,15.4c-9.5,0-15.9-6.7-15.9-15.4
				c0-9,6.5-15.7,15.9-15.7C2172.9-5499.6,2179.4-5492.8,2179.4-5483.9z M2174.9-5305.4H2152v-131.2h22.9V-5305.4z"/>
			<path id="XMLID_1085_" class="st8" d="M2331.4-5318.4l-5.2,15.9c-13.2-1.5-21.7-6.7-25.6-19.7c-9.2,13.7-23.1,19.7-39.1,19.7
				c-26.1,0-41.8-16.2-41.8-39.6c0-28.1,21.2-43.3,57.7-43.3h20.2v-9.7c0-18.9-9.2-25.9-27.4-25.9c-9.7,0-21.9,2.5-35.3,7l-5.7-16.7
				c16.2-6,30.6-9,45.3-9c31.6,0,46,16.2,46,43.6v60C2320.5-5324.6,2324.7-5320.9,2331.4-5318.4z M2297.6-5340v-30.1h-17.2
				c-24.1,0-36.3,9-36.3,26.9c0,15.4,7.7,23.6,22.6,23.6C2280.2-5319.6,2290.1-5326.3,2297.6-5340z"/>
			<path id="XMLID_1083_" class="st8" d="M2478.3-5305.4h-23.6v-171.5h23.6V-5305.4z"/>
			<path id="XMLID_1081_" class="st8" d="M2636.6-5399.5v94.1h-22.9v-90.8c0-19.7-8-25.4-20.7-25.4c-14.7,0-24.6,9.2-33.4,23.1v93.1
				h-22.9v-131.2h19.7l2,19.4c9-13.4,22.9-22.4,40.1-22.4C2622.6-5439.6,2636.6-5424.4,2636.6-5399.5z"/>
			<path id="XMLID_1079_" class="st8" d="M2758.8-5311.4c-8.7,6-18.2,9-29.4,9c-22.2,0-35.3-12.9-35.3-37.3v-79.1h-22.9v-17.7h22.9
				v-29.6l22.9-2.7v32.3h31.1l-2.5,17.7H2717v78.1c0,13.2,4.2,19.4,15.7,19.4c5.7,0,10.9-1.7,17.4-5.7L2758.8-5311.4z"/>
			<path id="XMLID_1076_" class="st8" d="M2891-5363.2h-83.6c2.2,30.4,16.4,42.1,35.3,42.1c12.9,0,22.6-3.5,34.1-11.5l10,13.7
				c-12.9,10.2-27.6,16.4-45.8,16.4c-36.6,0-58-25.6-58-67.2c0-40.8,20.7-69.9,54.5-69.9c35.3,0,54,24.6,54,64.7
				C2891.5-5370.4,2891.2-5366.2,2891-5363.2z M2868.8-5381.6c0-25.6-10.2-39.8-30.9-39.8c-17.4,0-28.9,12.2-30.6,41.3h61.5V-5381.6
				z"/>
			<path id="XMLID_1073_" class="st8" d="M3045-5430.6c-11,3.5-23.4,4-38.3,4c15.4,7,23.1,17.9,23.1,33.1c0,25.9-18.7,44.5-50,44.5
				c-6,0-11.2-0.7-16.7-2.5c-3.7,2.7-6.5,7.5-6.5,12.2c0,6,3.7,10.7,17.2,10.7h20.9c26.9,0,44.8,15.4,44.8,36.3
				c0,25.4-20.9,39.8-61.5,39.8c-42.8,0-56.2-13.2-56.2-39.8h20.7c0,14.9,6.7,21.9,35.6,21.9c28.4,0,38.3-7.2,38.3-20.4
				c0-12.4-10-18.7-26.4-18.7h-20.7c-23.4,0-33.8-11.7-33.8-24.9c0-8.5,5-16.9,14.4-23.1c-15.2-8-22.1-19.4-22.1-36.3
				c0-26.9,21.7-45.8,50.5-45.8c32.6,0.7,44.5-4.7,60-11.7L3045-5430.6z M2951.2-5393.8c0,17.4,9.7,29.6,27.6,29.6
				c17.9,0,27.6-10.9,27.6-29.9c0-19.2-9.5-29.1-28.1-29.1C2960.7-5423.2,2951.2-5411,2951.2-5393.8z"/>
			<path id="XMLID_1071_" class="st8" d="M3148.6-5438.1l-4.2,22.4c-4-1-6.7-1.5-11.5-1.5c-16.4,0-25.9,11.7-31.4,36.8v74.9h-22.9
				v-131.2h19.7l2.2,26.6c7-19.7,19.2-29.6,35.1-29.6C3139.9-5439.6,3144.6-5439.1,3148.6-5438.1z"/>
			<path id="XMLID_1068_" class="st8" d="M3284-5318.4l-5.2,15.9c-13.2-1.5-21.7-6.7-25.6-19.7c-9.2,13.7-23.1,19.7-39.1,19.7
				c-26.1,0-41.8-16.2-41.8-39.6c0-28.1,21.2-43.3,57.7-43.3h20.2v-9.7c0-18.9-9.2-25.9-27.4-25.9c-9.7,0-21.9,2.5-35.3,7l-5.7-16.7
				c16.2-6,30.6-9,45.3-9c31.6,0,46,16.2,46,43.6v60C3273-5324.6,3277.3-5320.9,3284-5318.4z M3250.1-5340v-30.1H3233
				c-24.1,0-36.3,9-36.3,26.9c0,15.4,7.7,23.6,22.6,23.6C3232.7-5319.6,3242.7-5326.3,3250.1-5340z"/>
			<path id="XMLID_1065_" class="st8" d="M3431.6-5489.4v183.9h-20.2l-2.2-18.2c-8.5,13.2-21.7,21.2-37.8,21.2
				c-31.9,0-49.5-27.1-49.5-67.9c0-40.1,19.4-69.2,51.5-69.2c15.4,0,26.6,7,35.3,16.2v-68.7L3431.6-5489.4z M3408.7-5340v-64.2
				c-8.2-10.4-17.4-17.2-30.4-17.2c-19.7,0-31.9,16.4-31.9,50.5c0,34.6,10.9,50.3,29.9,50.3C3391-5320.6,3400-5327.8,3408.7-5340z"
				/>
			<path id="XMLID_1062_" class="st8" d="M3588.1-5318.4l-5.2,15.9c-13.2-1.5-21.7-6.7-25.6-19.7c-9.2,13.7-23.1,19.7-39.1,19.7
				c-26.1,0-41.8-16.2-41.8-39.6c0-28.1,21.2-43.3,57.7-43.3h20.2v-9.7c0-18.9-9.2-25.9-27.4-25.9c-9.7,0-21.9,2.5-35.3,7l-5.7-16.7
				c16.2-6,30.6-9,45.3-9c31.6,0,46,16.2,46,43.6v60C3577.2-5324.6,3581.4-5320.9,3588.1-5318.4z M3554.3-5340v-30.1h-17.2
				c-24.1,0-36.3,9-36.3,26.9c0,15.4,7.7,23.6,22.6,23.6C3536.9-5319.6,3546.8-5326.3,3554.3-5340z"/>
		</g>
	</g>
	<rect id="XMLID_1044_" x="5211.5" y="-3560.3" class="st5" width="7211.6" height="2959.8"/>
	<rect id="XMLID_1742_" x="5242.5" y="-8252" class="st5" width="7211.6" height="2959.8"/>
	<path id="XMLID_1254_" class="st6" d="M7512-6770.8c-22.5-409.9-337.4-741.9-739.6-791.3c-34-4.2-68.7-6.3-103.8-6.3
		c-466.5,0-844.7,378.2-844.7,844.7c0,466.5,378.2,844.7,844.7,844.7c33.1,0,65.7-1.9,97.8-5.6c-402.2-49.3-717-381.4-739.6-791.3
		c-1.2-15.8-1.8-31.7-1.8-47.8c0-17.6,0.7-35.1,2.1-52.3c26.6-330.9,303.6-591.2,641.4-591.2c35.1,0,69.5,2.8,103.1,8.2
		c306.4,49.3,540.4,315,540.4,635.3c0,321.9-236.3,588.6-544.9,636c33.6,5.4,68,8.2,103.1,8.2c337.8,0,614.8-260.2,641.4-591.1
		c1.1-17.6,1.6-35.3,1.6-53.1C7513.3-6739.4,7512.9-6755.2,7512-6770.8z"/>
	<path id="XMLID_1251_" class="st7" d="M6907.7-7562c-33.1,0-65.7,1.9-97.8,5.6c402.2,49.3,717,381.3,739.6,791.3
		c1.2,15.8,1.8,31.8,1.8,47.9c0,17.6-0.7,35.1-2.1,52.4c-26.6,330.9-303.6,591.1-641.4,591.1c-35.1,0-69.5-2.8-103.1-8.2
		c-306.4-49.3-540.4-315-540.4-635.3c0-321.9,236.3-587,544.9-634.4c-33.6-5.4-68-9.8-103.1-9.8c-337.8,0-614.8,260.2-641.4,591.2
		c-1.1,17.5-1.6,35.2-1.6,53.1c0,15.8,0.4,31.5,1.3,47.1c22.5,409.9,337.3,742,739.6,791.3c34,4.2,68.7,6.3,103.8,6.3
		c466.5,0,844.7-378.2,844.7-844.7C7752.4-7183.8,7374.2-7562,6907.7-7562z"/>
	<g id="XMLID_1179_">
		<g id="XMLID_1229_">
			<path id="XMLID_1247_" class="st8" d="M8044.8-7063.1h185.8c108.5,0,174.1,64.3,174.1,157.2v1.3c0,105.2-81.9,159.8-183.8,159.8
				h-76v136.4h-100V-7063.1z M8224.1-6833.8c50,0,79.3-29.9,79.3-68.9v-1.3c0-44.8-31.2-68.9-81.2-68.9h-77.3v139H8224.1z"/>
			<path id="XMLID_1244_" class="st8" d="M8487.6-7063.1h207.9c57.8,0,102.6,16.2,132.5,46.1c25.3,25.3,39,61.1,39,103.9v1.3
				c0,73.4-39.6,119.5-97.4,141l111.1,162.4h-116.9l-97.4-145.5h-1.3h-77.3v145.5h-100V-7063.1z M8689-6842.3
				c48.7,0,76.7-26,76.7-64.3v-1.3c0-42.9-29.9-65-78.6-65h-99.4v130.6H8689z"/>
			<path id="XMLID_1241_" class="st8" d="M8949.7-6834.5v-1.3c0-129.3,102-235.2,242.3-235.2c140.3,0,241,104.6,241,233.9v1.3
				c0,129.3-102,235.2-242.3,235.2C9050.4-6600.6,8949.7-6705.2,8949.7-6834.5z M9328.5-6834.5v-1.3c0-78-57.2-142.9-137.7-142.9
				c-80.6,0-136.4,63.7-136.4,141.6v1.3c0,78,57.2,142.9,137.7,142.9C9272.6-6692.9,9328.5-6756.5,9328.5-6834.5z"/>
			<path id="XMLID_1239_" class="st8" d="M9466.5-6670.1l63-70.2c26,28.6,51.3,45.5,83.2,45.5c37.7,0,61.1-22.7,61.1-75.4v-293
				h102.6v297.5c0,53.9-15.6,94.2-42.9,121.5c-27.9,27.9-68.9,42.2-118.2,42.2C9544.5-6601.9,9497.7-6633.1,9466.5-6670.1z"/>
			<path id="XMLID_1237_" class="st8" d="M9875.8-7063.1h344.2v89h-244.8v92.2h228.1v89h-228.1v95.5h244.8v89h-344.2V-7063.1z"/>
			<path id="XMLID_1235_" class="st8" d="M10441.5-6970.9h-138.4v-92.2h376.8v92.2h-138.4v362.5h-100V-6970.9z"/>
			<path id="XMLID_1232_" class="st8" d="M10728.9-6834.5v-1.3c0-129.3,102-235.2,242.3-235.2c140.3,0,241,104.6,241,233.9v1.3
				c0,129.3-102,235.2-242.3,235.2C10829.6-6600.6,10728.9-6705.2,10728.9-6834.5z M11107.6-6834.5v-1.3
				c0-78-57.2-142.9-137.7-142.9c-80.6,0-136.4,63.7-136.4,141.6v1.3c0,78,57.2,142.9,137.7,142.9
				C11051.8-6692.9,11107.6-6756.5,11107.6-6834.5z"/>
			<path id="XMLID_1230_" class="st8" d="M11277.6-6674.7l59.1-70.8c40.9,33.8,83.8,55.2,135.8,55.2c40.9,0,65.6-16.2,65.6-42.9
				v-1.3c0-25.3-15.6-38.3-91.6-57.8c-91.6-23.4-150.7-48.7-150.7-139v-1.3c0-82.5,66.3-137.1,159.2-137.1
				c66.3,0,122.8,20.8,168.9,57.8l-52,75.4c-40.3-27.9-79.9-44.8-118.2-44.8c-38.3,0-58.5,17.5-58.5,39.6v1.3
				c0,29.9,19.5,39.6,98.1,59.8c92.2,24,144.2,57.2,144.2,136.4v1.3c0,90.3-68.9,141-167,141
				C11401.7-6601.9,11332.2-6625.9,11277.6-6674.7z"/>
		</g>
		<path id="XMLID_1227_" class="st8" d="M8205.2-6485.8l-17.7,20.7c-14.6-11.9-28.9-17.3-45.2-17.3c-35.4,0-64.9,23.8-64.9,94.5
			c0,67.6,28.2,94.2,64.6,94.2c22.1,0,36.4-9.9,49.6-19.7l16.3,20.7c-12.6,13.3-35.4,26.2-67,26.2c-56.8,0-97.9-42.5-97.9-121.4
			c0-79.2,44.2-121,97.2-121C8169.9-6509,8186.5-6500.8,8205.2-6485.8z"/>
		<path id="XMLID_1224_" class="st8" d="M8407.5-6360.4c0,55.4-29.2,93.8-79.9,93.8c-51,0-79.9-36.7-79.9-93.5
			c0-55.4,29.2-93.8,80.2-93.8C8379-6453.9,8407.5-6417.2,8407.5-6360.4z M8281.4-6360.1c0,46.6,16.3,68.3,46.2,68.3
			c29.9,0,46.2-21.8,46.2-68.7c0-46.6-16.3-68.3-45.9-68.3C8298.1-6428.7,8281.4-6407,8281.4-6360.1z"/>
		<path id="XMLID_1222_" class="st8" d="M8609.1-6399.2v128.5h-31.3v-124.1c0-26.8-10.9-34.7-28.2-34.7c-20.1,0-33.7,12.6-45.6,31.6
			v127.1h-31.3v-179.1h26.9l2.7,26.5c12.2-18.4,31.3-30.6,54.7-30.6C8590.1-6453.9,8609.1-6433.2,8609.1-6399.2z"/>
		<path id="XMLID_1220_" class="st8" d="M8795.1-6433.5l-13.3,19.7c-16-10.2-29.9-15.3-46.6-15.3c-20.4,0-33,9.2-33,23.4
			c0,14.6,9.5,21.4,38.4,28.9c37.7,9.5,59.5,24.5,59.5,55.7c0,37.4-34.3,54.4-70.7,54.4c-30.3,0-52-9.9-67.6-23.5l16.7-19
			c14.3,10.9,30.9,17.3,50.3,17.3c23.5,0,38.4-10.2,38.4-27.2c0-17.7-8.8-24.5-43.5-33.6c-38.8-10.2-54-26.9-54-52
			c0-28.6,27.5-49.3,64.6-49.3C8759.4-6453.9,8778.1-6446.4,8795.1-6433.5z"/>
		<path id="XMLID_1218_" class="st8" d="M8991.2-6270.7h-26.9l-2.4-27.9c-13.6,21.8-30.3,32-55.7,32c-31.3,0-50-19.7-50-54.7v-128.5
			h31.3v125.1c0,24.5,8.2,33.7,27.5,33.7c19.4,0,34-12.9,44.9-30.9v-127.8h31.3V-6270.7z"/>
		<path id="XMLID_1216_" class="st8" d="M9067.7-6306v-215.8l31.3-3.7v218.9c0,9.5,3.1,14.3,11.2,14.3c4.4,0,8.2-0.7,11.6-2
			l8.2,21.8c-6.8,3.7-15.6,6.1-24.8,6.1C9082.4-6266.6,9067.7-6280.5,9067.7-6306z"/>
		<path id="XMLID_1214_" class="st8" d="M9273.1-6278.8c-11.9,8.2-24.8,12.2-40.1,12.2c-30.3,0-48.3-17.7-48.3-51v-108.1h-31.3
			v-24.1h31.3v-40.4l31.3-3.7v44.2h42.5l-3.4,24.1H9216v106.7c0,18,5.8,26.5,21.4,26.5c7.8,0,15-2.4,23.8-7.8L9273.1-6278.8z"/>
		<path id="XMLID_1211_" class="st8" d="M9465.8-6360.4c0,55.4-29.2,93.8-79.9,93.8c-51,0-79.9-36.7-79.9-93.5
			c0-55.4,29.2-93.8,80.2-93.8C9437.3-6453.9,9465.8-6417.2,9465.8-6360.4z M9339.7-6360.1c0,46.6,16.3,68.3,46.2,68.3
			c29.9,0,46.2-21.8,46.2-68.7c0-46.6-16.3-68.3-45.9-68.3C9356.4-6428.7,9339.7-6407,9339.7-6360.1z"/>
		<path id="XMLID_1209_" class="st8" d="M9626.6-6451.8l-5.8,30.6c-5.4-1.4-9.2-2-15.6-2c-22.4,0-35.3,16-42.8,50.3v102.3h-31.3
			v-179.1h26.9l3.1,36.4c9.5-26.8,26.2-40.4,47.9-40.4C9614.7-6453.9,9621.2-6453.2,9626.6-6451.8z"/>
		<path id="XMLID_1206_" class="st8" d="M9713.3-6514.4c0,11.9-8.8,21.1-22.1,21.1c-12.9,0-21.8-9.2-21.8-21.1
			c0-12.2,8.8-21.4,21.8-21.4C9704.5-6535.8,9713.3-6526.6,9713.3-6514.4z M9707.2-6270.7h-31.3v-179.1h31.3V-6270.7z"/>
		<path id="XMLID_1203_" class="st8" d="M9921-6288.3l-7.1,21.8c-18-2-29.6-9.2-35-26.9c-12.6,18.7-31.6,26.9-53.4,26.9
			c-35.7,0-57.1-22.1-57.1-54c0-38.4,28.9-59.1,78.9-59.1h27.5v-13.3c0-25.8-12.6-35.3-37.4-35.3c-13.3,0-29.9,3.4-48.3,9.5
			l-7.8-22.8c22.1-8.2,41.8-12.2,61.9-12.2c43.2,0,62.9,22.1,62.9,59.5v81.9C9906.1-6296.8,9911.8-6291.7,9921-6288.3z
			 M9874.8-6317.9v-41.1h-23.5c-33,0-49.6,12.2-49.6,36.7c0,21.1,10.5,32.3,30.9,32.3C9851-6290,9864.6-6299.2,9874.8-6317.9z"/>
		<path id="XMLID_1201_" class="st8" d="M10121.6-6270.7h-32.3v-234.2h32.3V-6270.7z"/>
		<path id="XMLID_1199_" class="st8" d="M10337.8-6399.2v128.5h-31.3v-124.1c0-26.8-10.9-34.7-28.2-34.7
			c-20.1,0-33.7,12.6-45.6,31.6v127.1h-31.3v-179.1h26.9l2.7,26.5c12.2-18.4,31.3-30.6,54.7-30.6
			C10318.8-6453.9,10337.8-6433.2,10337.8-6399.2z"/>
		<path id="XMLID_1197_" class="st8" d="M10504.7-6278.8c-11.9,8.2-24.8,12.2-40.1,12.2c-30.3,0-48.3-17.7-48.3-51v-108.1h-31.3
			v-24.1h31.3v-40.4l31.3-3.7v44.2h42.5l-3.4,24.1h-39.1v106.7c0,18,5.8,26.5,21.4,26.5c7.8,0,15-2.4,23.8-7.8L10504.7-6278.8z"/>
		<path id="XMLID_1194_" class="st8" d="M10685.3-6349.5H10571c3.1,41.5,22.4,57.4,48.3,57.4c17.7,0,30.9-4.8,46.6-15.6l13.6,18.7
			c-17.7,13.9-37.7,22.4-62.5,22.4c-50,0-79.2-35-79.2-91.8c0-55.7,28.2-95.5,74.4-95.5c48.3,0,73.8,33.7,73.8,88.4
			C10685.9-6359.4,10685.6-6353.6,10685.3-6349.5z M10655-6374.7c0-35-13.9-54.4-42.1-54.4c-23.8,0-39.4,16.7-41.8,56.4h84V-6374.7z
			"/>
		<path id="XMLID_1191_" class="st8" d="M10895.7-6441.6c-15,4.8-32,5.4-52.4,5.4c21.1,9.5,31.6,24.5,31.6,45.2
			c0,35.4-25.5,60.8-68.3,60.8c-8.2,0-15.3-1-22.8-3.4c-5.1,3.7-8.8,10.2-8.8,16.7c0,8.2,5.1,14.6,23.5,14.6h28.6
			c36.7,0,61.2,21.1,61.2,49.6c0,34.7-28.6,54.4-84,54.4c-58.5,0-76.8-18-76.8-54.4h28.2c0,20.4,9.2,29.9,48.6,29.9
			c38.8,0,52.4-9.9,52.4-27.9c0-17-13.6-25.5-36-25.5h-28.2c-32,0-46.2-16-46.2-34c0-11.6,6.8-23.1,19.7-31.6
			c-20.7-10.9-30.3-26.5-30.3-49.6c0-36.7,29.6-62.5,69-62.5c44.5,1,60.8-6.5,81.9-16L10895.7-6441.6z M10767.5-6391.3
			c0,23.8,13.3,40.4,37.7,40.4c24.5,0,37.7-15,37.7-40.8c0-26.2-12.9-39.8-38.4-39.8C10780.5-6431.5,10767.5-6414.8,10767.5-6391.3z
			"/>
		<path id="XMLID_1189_" class="st8" d="M11037.1-6451.8l-5.8,30.6c-5.4-1.4-9.2-2-15.6-2c-22.4,0-35.3,16-42.8,50.3v102.3h-31.3
			v-179.1h26.9l3.1,36.4c9.5-26.8,26.2-40.4,47.9-40.4C11025.2-6453.9,11031.7-6453.2,11037.1-6451.8z"/>
		<path id="XMLID_1186_" class="st8" d="M11222.1-6288.3l-7.1,21.8c-18-2-29.6-9.2-35-26.9c-12.6,18.7-31.6,26.9-53.4,26.9
			c-35.7,0-57.1-22.1-57.1-54c0-38.4,28.9-59.1,78.9-59.1h27.5v-13.3c0-25.8-12.6-35.3-37.4-35.3c-13.3,0-29.9,3.4-48.3,9.5
			l-7.8-22.8c22.1-8.2,41.8-12.2,61.9-12.2c43.2,0,62.9,22.1,62.9,59.5v81.9C11207.1-6296.8,11212.9-6291.7,11222.1-6288.3z
			 M11175.8-6317.9v-41.1h-23.5c-33,0-49.6,12.2-49.6,36.7c0,21.1,10.5,32.3,30.9,32.3C11152-6290,11165.6-6299.2,11175.8-6317.9z"
			/>
		<path id="XMLID_1183_" class="st8" d="M11423.7-6521.9v251.2h-27.5l-3.1-24.8c-11.6,18-29.6,28.9-51.7,28.9
			c-43.5,0-67.6-37.1-67.6-92.8c0-54.7,26.5-94.5,70.4-94.5c21.1,0,36.4,9.5,48.3,22.1v-93.8L11423.7-6521.9z M11392.4-6317.9v-87.7
			c-11.2-14.3-23.8-23.4-41.5-23.4c-26.9,0-43.5,22.4-43.5,69c0,47.3,15,68.7,40.8,68.7
			C11368.2-6291.4,11380.5-6301.3,11392.4-6317.9z"/>
		<path id="XMLID_1180_" class="st8" d="M11637.5-6288.3l-7.1,21.8c-18-2-29.6-9.2-35-26.9c-12.6,18.7-31.6,26.9-53.4,26.9
			c-35.7,0-57.1-22.1-57.1-54c0-38.4,28.9-59.1,78.9-59.1h27.5v-13.3c0-25.8-12.6-35.3-37.4-35.3c-13.3,0-29.9,3.4-48.3,9.5
			l-7.8-22.8c22.1-8.2,41.8-12.2,61.9-12.2c43.2,0,62.9,22.1,62.9,59.5v81.9C11622.5-6296.8,11628.3-6291.7,11637.5-6288.3z
			 M11591.3-6317.9v-41.1h-23.5c-33,0-49.6,12.2-49.6,36.7c0,21.1,10.5,32.3,30.9,32.3C11567.5-6290,11581.1-6299.2,11591.3-6317.9z
			"/>
	</g>
	<g id="XMLID_994_">
		<path id="XMLID_980_" class="st1" d="M7497.4,1412.4c-22.2-403.4-331.8-730.1-727.5-778.9c0.2,0,0.5-0.1,0.7-0.1
			c-33.5-4.1-67.6-6.2-102.2-6.2c-459.3,0-831.7,372.4-831.7,831.7c0,459.3,372.4,831.7,831.7,831.7c32.6,0,64.7-1.9,96.3-5.5
			c-396-48.5-706-375.5-728.2-779.1c-1.1-15.6-1.7-31.3-1.7-47.1c0-17.4,0.7-34.5,2.1-51.5c1-16.5,2.5-32.9,4.5-49.2
			c48.3-302,310-532.8,625.6-532.8c34.6,0,68.5,2.8,101.5,8.1c301.6,48.6,532,310.1,532,625.5c0,316.9-232.7,579.5-536.5,626.2
			c33.1,5.3,67,8.1,101.5,8.1c332.5,0,605.3-256.2,631.5-582c1.1-17.3,1.6-34.7,1.6-52.3C7498.7,1443.3,7498.2,1427.8,7497.4,1412.4
			z"/>
		<path id="XMLID_979_" class="st3" d="M6924,638.7c-32.6,0-64.7,1.9-96.3,5.5c396,48.5,706,375.5,728.2,779
			c1.1,15.6,1.7,31.3,1.7,47.1c0,17.4-0.7,34.6-2.1,51.6v0c-26.2,325.8-298.9,582-631.5,582c-34.6,0-68.5-2.8-101.5-8.1
			c-301.6-48.6-532-310.1-532-625.5c0-316.9,232.7-579.5,536.5-626.2c-33.1-5.3-67-8.1-101.5-8.1c-332.6,0-605.3,256.2-631.5,582
			c-1.1,17.3-1.6,34.7-1.6,52.2c0,15.6,0.4,31,1.3,46.4c22.2,403.6,332.1,730.5,728.2,779.1h0c33.5,4.1,67.6,6.2,102.2,6.2
			c459.3,0,831.7-372.4,831.7-831.7C7755.6,1011,7383.3,638.7,6924,638.7z"/>
	</g>
	<g id="XMLID_1642_">
		<path id="XMLID_1644_" class="st1" d="M2968,1412.4c-22.2-403.4-331.8-730.1-727.5-778.9c0.2,0,0.5-0.1,0.7-0.1
			c-33.5-4.1-67.6-6.2-102.2-6.2c-459.3,0-831.7,372.4-831.7,831.7c0,459.3,372.4,831.7,831.7,831.7c32.6,0,64.7-1.9,96.3-5.5
			c-396-48.5-706-375.5-728.2-779.1c-1.1-15.6-1.7-31.3-1.7-47.1c0-17.4,0.7-34.5,2.1-51.5c1-16.5,2.5-32.9,4.5-49.2
			c48.3-302,310-532.8,625.6-532.8c34.6,0,68.5,2.8,101.5,8.1c301.6,48.6,532,310.1,532,625.5c0,316.9-232.7,579.5-536.5,626.2
			c33.1,5.3,67,8.1,101.5,8.1c332.5,0,605.3-256.2,631.5-582c1.1-17.3,1.6-34.7,1.6-52.3C2969.3,1443.3,2968.9,1427.8,2968,1412.4z"
			/>
		<path id="XMLID_1643_" class="st3" d="M2394.6,638.7c-32.6,0-64.7,1.9-96.3,5.5c396,48.5,706,375.5,728.2,779
			c1.1,15.6,1.7,31.3,1.7,47.1c0,17.4-0.7,34.6-2.1,51.6v0c-26.2,325.8-298.9,582-631.5,582c-34.6,0-68.5-2.8-101.5-8.1
			c-301.6-48.6-532-310.1-532-625.5c0-316.9,232.7-579.5,536.5-626.2c-33.1-5.3-67-8.1-101.5-8.1c-332.6,0-605.3,256.2-631.5,582
			c-1.1,17.3-1.6,34.7-1.6,52.2c0,15.6,0.4,31,1.3,46.4c22.2,403.6,332.1,730.5,728.2,779.1h0c33.5,4.1,67.6,6.2,102.2,6.2
			c459.3,0,831.7-372.4,831.7-831.7C3226.3,1011,2853.9,638.7,2394.6,638.7z"/>
	</g>
</g>
</svg>
