<?xml version="1.0" encoding="UTF-8" standalone="no"?>
<!-- Generator: Adobe Illustrator 19.0.0, SVG Export Plug-In . SVG Version: 6.00 Build 0)  -->

<svg
   xmlns:i="&amp;ns_ai;"
   xmlns:dc="http://purl.org/dc/elements/1.1/"
   xmlns:cc="http://creativecommons.org/ns#"
   xmlns:rdf="http://www.w3.org/1999/02/22-rdf-syntax-ns#"
   xmlns:svg="http://www.w3.org/2000/svg"
   xmlns="http://www.w3.org/2000/svg"
   xmlns:sodipodi="http://sodipodi.sourceforge.net/DTD/sodipodi-0.dtd"
   xmlns:inkscape="http://www.inkscape.org/namespaces/inkscape"
   version="1.1"
   x="0px"
   y="0px"
   viewBox="0 0 445.6 410.6"
   style="enable-background:new 0 0 445.6 410.6;"
   xml:space="preserve"
   id="svg14"
   sodipodi:docname="quote_r.svg"
   inkscape:version="0.92+devel unknown"><metadata
     id="metadata20"><rdf:RDF><cc:Work
         rdf:about=""><dc:format>image/svg+xml</dc:format><dc:type
           rdf:resource="http://purl.org/dc/dcmitype/StillImage" /></cc:Work></rdf:RDF></metadata><defs
     id="defs18" /><sodipodi:namedview
     pagecolor="#ffffff"
     bordercolor="#666666"
     inkscape:document-rotation="0"
     borderopacity="1"
     objecttolerance="10"
     gridtolerance="10"
     guidetolerance="10"
     inkscape:pageopacity="0"
     inkscape:pageshadow="2"
     inkscape:window-width="1366"
     inkscape:window-height="713"
     id="namedview16"
     showgrid="false"
     inkscape:zoom="1.3273258"
     inkscape:cx="222.8"
     inkscape:cy="-74.462514"
     inkscape:window-x="0"
     inkscape:window-y="0"
     inkscape:window-maximized="1"
     inkscape:current-layer="Layer_1" /><style
     type="text/css"
     id="style2">
	.st0{fill:#AAD8D2;}
</style><switch
     id="switch12"><g
       i:extraneous="self"
       id="g10"><g
         id="Layer_1"><g
           id="XMLID_213_" /><g
           id="XMLID_101_"><path
             id="XMLID_102_"
             class="st0"
             d="M417,0c19,40.9,28.6,82.4,28.6,124.2c0,52.8-14.3,103.6-42.8,152.4      c-28.6,48.8-69.3,93.4-122.1,133.9l-47.8-31.4c-7.1-4.3-10.7-11-10.7-20c0-5.2,1.3-10.1,3.9-14.6c2.6-4.5,7-10.1,13.2-16.8      c5.7-6.7,12.3-15.1,19.6-25.3c7.4-10.2,14.2-21.9,20.3-35c6.2-13.1,11.4-27.5,15.7-43.2c4.3-15.7,6.4-32.4,6.4-50      c0-13.8-1.5-28.1-4.6-42.8c-3.1-14.8-8.2-30-15.4-45.7c-1.4-3.8-2.1-7.6-2.1-11.4c0-7.1,2.6-13.7,7.9-19.6      c5.2-6,12.6-10.8,22.1-14.6L417,0z M194.9,0c19,40.9,28.6,82.4,28.6,124.2c0,52.8-14.3,103.6-42.8,152.4      c-28.6,48.8-69.3,93.4-122.1,133.9l-47.8-31.4c-7.1-4.3-10.7-11-10.7-20c0-5.2,1.3-10.1,3.9-14.6c2.6-4.5,7-10.1,13.2-16.8      c5.7-6.7,12.3-15.1,19.6-25.3c7.4-10.2,14.2-21.9,20.3-35c6.2-13.1,11.4-27.5,15.7-43.2c4.3-15.7,6.4-32.4,6.4-50      c0-13.8-1.5-28.1-4.6-42.8c-3.1-14.8-8.2-30-15.4-45.7c-1.4-3.8-2.1-7.6-2.1-11.4c0-7.1,2.6-13.7,7.9-19.6      c5.2-6,12.6-10.8,22.1-14.6L194.9,0z" /></g></g><g
         id="Layer_2" /></g></switch></svg>