<?xml version="1.0" encoding="UTF-8" standalone="no"?>
<!-- Generator: Adobe Illustrator 19.0.0, SVG Export Plug-In . SVG Version: 6.00 Build 0)  -->

<svg
   xmlns:i="&amp;ns_ai;"
   xmlns:dc="http://purl.org/dc/elements/1.1/"
   xmlns:cc="http://creativecommons.org/ns#"
   xmlns:rdf="http://www.w3.org/1999/02/22-rdf-syntax-ns#"
   xmlns:svg="http://www.w3.org/2000/svg"
   xmlns="http://www.w3.org/2000/svg"
   xmlns:sodipodi="http://sodipodi.sourceforge.net/DTD/sodipodi-0.dtd"
   xmlns:inkscape="http://www.inkscape.org/namespaces/inkscape"
   version="1.1"
   x="0px"
   y="0px"
   viewBox="0 0 445.6 410.6"
   style="enable-background:new 0 0 445.6 410.6;"
   xml:space="preserve"
   id="svg14"
   sodipodi:docname="quote_l.svg"
   inkscape:version="0.92+devel unknown"><metadata
     id="metadata20"><rdf:RDF><cc:Work
         rdf:about=""><dc:format>image/svg+xml</dc:format><dc:type
           rdf:resource="http://purl.org/dc/dcmitype/StillImage" /></cc:Work></rdf:RDF></metadata><defs
     id="defs18" /><sodipodi:namedview
     pagecolor="#ffffff"
     bordercolor="#666666"
     inkscape:document-rotation="0"
     borderopacity="1"
     objecttolerance="10"
     gridtolerance="10"
     guidetolerance="10"
     inkscape:pageopacity="0"
     inkscape:pageshadow="2"
     inkscape:window-width="1366"
     inkscape:window-height="713"
     id="namedview16"
     showgrid="false"
     inkscape:zoom="1.3273258"
     inkscape:cx="222.8"
     inkscape:cy="232.5903"
     inkscape:window-x="0"
     inkscape:window-y="0"
     inkscape:window-maximized="1"
     inkscape:current-layer="Layer_1" /><style
     type="text/css"
     id="style2">
	.st0{fill:#AAD8D2;}
</style><switch
     id="switch12"><g
       i:extraneous="self"
       id="g10"><g
         id="Layer_1"><g
           id="XMLID_213_"
           transform="translate(0,-430.59999)"><path
             id="XMLID_216_"
             class="st0"
             d="M 28.6,841.2 C 9.5,800.2 0,758.8 0,716.9 0,664.1 14.3,613.3 42.8,564.5 71.4,515.7 112.1,471.1 164.9,430.6 l 47.8,31.4 c 7.1,4.3 10.7,11 10.7,20 0,5.2 -1.3,10.1 -3.9,14.6 -2.6,4.5 -7,10.1 -13.2,16.8 -5.7,6.7 -12.3,15.1 -19.6,25.3 -7.4,10.2 -14.2,21.9 -20.3,35 -6.2,13.1 -11.4,27.5 -15.7,43.2 -4.3,15.7 -6.4,32.4 -6.4,50 0,13.8 1.5,28.1 4.6,42.8 3.1,14.8 8.2,30 15.4,45.7 1.4,3.8 2.1,7.6 2.1,11.4 0,7.1 -2.6,13.7 -7.9,19.6 -5.2,6 -12.6,10.8 -22.1,14.6 z m 222,0 C 231.6,800.3 222,758.8 222,717 c 0,-52.8 14.3,-103.6 42.8,-152.4 28.6,-48.8 69.3,-93.4 122.1,-133.9 l 47.8,31.4 c 7.1,4.3 10.7,11 10.7,20 0,5.2 -1.3,10.1 -3.9,14.6 -2.6,4.5 -7,10.1 -13.2,16.8 -5.7,6.7 -12.3,15.1 -19.6,25.3 -7.4,10.2 -14.2,21.9 -20.3,35 -6.2,13.1 -11.4,27.5 -15.7,43.2 -4.3,15.7 -6.4,32.4 -6.4,50 0,13.8 1.5,28.1 4.6,42.8 3.1,14.8 8.2,30 15.4,45.7 1.4,3.8 2.1,7.6 2.1,11.4 0,7.1 -2.6,13.7 -7.9,19.6 -5.2,6 -12.6,10.8 -22.1,14.6 z"
             inkscape:connector-curvature="0" /></g></g><g
         id="Layer_2" /></g></switch></svg>