<?xml version="1.0" encoding="utf-8"?>
<!-- Generator: Adobe Illustrator 19.0.0, SVG Export Plug-In . SVG Version: 6.00 Build 0)  -->
<svg version="1.1" id="Layer_1" xmlns="http://www.w3.org/2000/svg" xmlns:xlink="http://www.w3.org/1999/xlink" x="0px" y="0px"
	 viewBox="0 0 50 50" style="enable-background:new 0 0 50 50;" xml:space="preserve">
<style type="text/css">
	.st0{fill:#3D0F11;}
</style>
<g id="lupa">
	<path id="XMLID_473_" class="st0" d="M47.4,40.6L36.7,29.8c-1.6,2.5-3.7,4.6-6.2,6.2l10.7,10.7c1.7,1.7,4.5,1.7,6.2,0
		C49.1,45.1,49.1,42.3,47.4,40.6L47.4,40.6z M47.4,40.6"/>
	<path id="XMLID_469_" class="st0" d="M19.4,1.3C9.7,1.3,1.9,9.1,1.9,18.8c0,9.7,7.9,17.6,17.6,17.6c9.7,0,17.6-7.8,17.6-17.6
		C37,9.1,29.1,1.3,19.4,1.3z M19.4,32c-7.2,0-13.2-5.9-13.2-13.2c0-7.2,5.9-13.2,13.2-13.2c7.3,0,13.2,5.9,13.2,13.2
		C32.6,26.1,26.7,32,19.4,32z"/>
</g>
</svg>
